<?xml version="1.0" encoding="utf-8"?>
<!-- Generator: Adobe Illustrator 21.0.2, SVG Export Plug-In . SVG Version: 6.00 Build 0)  -->
<svg version="1.1" id="Calque_1" xmlns="http://www.w3.org/2000/svg" xmlns:xlink="http://www.w3.org/1999/xlink" x="0px" y="0px"
	 viewBox="0 0 318.4 72.8" style="enable-background:new 0 0 318.4 72.8;" xml:space="preserve">
<style type="text/css">
	.st0{fill:#FFFFFF;}
</style>
<g>
	<g>
		<g>
			<path class="st0" d="M37.5,51.5c0.1,2.4-0.2,4.5-0.8,6.4c-0.6,1.8-1.4,3.5-2.4,4.9s-2.2,2.7-3.5,3.7c-1.3,1.1-2.7,2-4.2,2.7
				c-1.5,0.8-2.9,1.4-4.4,1.8c-1.5,0.5-2.9,0.8-4.1,1.1c-1.3,0.3-2.6,0.5-3.9,0.6c-1.4,0.1-2.7,0.2-4.1,0.1s-2.7-0.3-4-0.7
				c-1.3-0.4-2.6-0.9-3.8-1.7C1.5,48,0.8,25.5,0,3.1c1.1-0.7,2.4-1.2,3.7-1.7s2.6-0.8,4-1s2.7-0.3,4.1-0.4c1.4,0,2.7,0.1,4,0.3
				c1.5,0.2,3,0.6,4.5,1.1s3,1.2,4.4,2s2.7,1.9,4,3c1.2,1.2,2.3,2.5,3.3,4.1c0.9,1.6,1.7,3.3,2.3,5.3s0.9,4.2,0.9,6.7
				c0,1.6-0.1,3.2-0.4,4.6c-0.3,1.4-0.7,2.7-1.3,3.9c-0.6,1.2-1.3,2.2-2.2,3c-0.9,0.8-1.9,1.5-3,1.9c1.4,0.5,2.6,1.2,3.7,2.2
				c1.1,0.9,2.1,2.1,2.9,3.4c0.8,1.3,1.4,2.9,1.9,4.5C37.2,47.7,37.5,49.6,37.5,51.5z M17.2,41.9c-0.6,0-1.2,0.2-1.7,0.4
				c0.1,3.7,0.1,7.4,0.2,11.2c0.3,0.1,0.6,0.1,0.9,0.2c0.3,0,0.6,0.1,0.9,0c0.4,0,0.9-0.2,1.4-0.4s1-0.5,1.4-1s0.8-1.1,1.1-1.9
				c0.3-0.8,0.4-1.7,0.4-2.9s-0.2-2.2-0.5-2.9s-0.7-1.3-1.1-1.7s-0.9-0.7-1.4-0.8C18.1,42,17.6,41.9,17.2,41.9z M21.1,26.2
				c0-0.9-0.2-1.7-0.4-2.4c-0.3-0.7-0.6-1.2-1-1.6s-0.8-0.8-1.2-1c-0.4-0.2-0.8-0.3-1.1-0.3c-0.4,0-0.8,0.1-1.2,0.2
				c-0.4,0.2-0.8,0.4-1.1,0.6c0,3.6,0.1,7.2,0.1,10.9c0.5,0,1.1-0.1,1.8-0.2c0.7-0.1,1.4-0.4,2-0.9c0.6-0.4,1.2-1.1,1.6-1.9
				C21,28.8,21.2,27.7,21.1,26.2z"/>
		</g>
		<path class="st0" d="M72,21.1c0,2.1,0,4.5-0.1,7.1s-0.3,5.2-0.5,8c-0.3,2.8-0.6,5.6-1,8.4c-0.4,2.8-1,5.6-1.6,8.2
			c-0.7,2.6-1.4,5.1-2.3,7.4c-0.9,2.3-1.9,4.3-3.1,6c-1.2,1.7-2.5,3.1-4,4.1s-3.1,1.5-5,1.6c-2.2,0-4-0.5-5.7-1.5
			c-1.6-1.1-3-2.5-4.2-4.3s-2.2-3.9-2.9-6.4c-0.8-2.4-1.4-5-1.9-7.7s-0.8-5.5-1.1-8.4c-0.2-2.8-0.4-5.6-0.4-8.2
			c-0.1-4.1-0.1-8.1,0.1-12.2c0.2-4,0.4-8.1,0.8-12.1c4.4,0.2,8.8,0.3,13.2,0.5c-0.4,4.6-0.8,9.1-1,13.7c-0.3,4.6-0.4,9.2-0.3,13.9
			c0,0.5,0,1.2,0.1,2.2c0,1,0.1,2.1,0.2,3.3c0.1,1.2,0.2,2.4,0.4,3.7s0.4,2.4,0.6,3.4c0.3,1,0.6,1.9,0.9,2.5c0.4,0.7,0.8,1,1.2,1
			c0.5,0,1-0.4,1.4-1.2s0.8-1.9,1.1-3.2s0.6-2.9,0.8-4.6c0.2-1.7,0.4-3.6,0.5-5.4c0.1-1.9,0.2-3.8,0.3-5.7s0.1-3.6,0.2-5.3
			c0-1.6,0-3.1,0-4.3c0-1.2,0-2.2,0-2.8c0-2.3-0.1-4.5-0.2-6.8c-0.1-2.2-0.2-4.5-0.3-6.7c4.4-0.1,8.8-0.2,13.2-0.2
			C71.8,13,71.9,17,72,21.1z"/>
		<path class="st0" d="M89.3,8c-0.8,19.7-1.6,39.5-2.3,59.2c-3.9,0.4-7.8,0.7-11.8,1.1c-0.3-19.6-0.6-39.2-0.9-58.9
			C79.3,9,84.3,8.5,89.3,8z"/>
		<path class="st0" d="M116.4,44.2c-0.3,6.4-0.7,12.9-1,19.3c-7.8,1-15.7,2-23.5,3.1c0-10.1,0-20.2,0-30.2S92,16.3,92,6.2
			c4.9,0,9.8-0.1,14.7-0.1c-0.4,6.3-0.7,12.7-1.1,19c-0.3,6.3-0.6,12.7-0.7,19.2c0.9,0,1.7,0.1,2.6,0.1s1.7,0,2.6,0
			c1,0,2.1,0,3.1-0.1C114.3,44.2,115.3,44.2,116.4,44.2z"/>
		<path class="st0" d="M149.4,34.3c0,4.1-0.3,7.7-1,11s-1.6,6.2-2.8,8.7s-2.6,4.7-4.3,6.5s-3.5,3.3-5.4,4.5c-2,1.2-4.1,2.1-6.3,2.6
			c-2.2,0.6-4.5,0.9-6.8,0.9c-0.9,0-1.7,0-2.6-0.1c-0.8-0.1-1.7-0.2-2.6-0.3c0.1-19.4,0.2-38.9,0.4-58.3c2.1-1,4.2-1.8,6.4-2.2
			c2.2-0.4,4.4-0.7,6.5-0.7c2.7,0,5.2,0.6,7.4,1.8c2.3,1.2,4.2,3,5.9,5.4c1.6,2.3,2.9,5.2,3.8,8.6C149,26.2,149.4,30,149.4,34.3z
			 M137.9,37.1c0-1.6-0.1-3.1-0.3-4.5c-0.2-1.4-0.6-2.7-1.2-3.8c-0.5-1.1-1.2-2-2-2.7s-1.8-1-3-1.1c-0.3,9-0.7,18-1,27
			c1.1-0.3,2.1-0.8,3-1.7s1.7-2,2.4-3.3s1.2-2.7,1.5-4.3c0.4-1.6,0.6-3.2,0.6-4.9C137.9,37.5,137.9,37.3,137.9,37.1z"/>
		<path class="st0" d="M177.9,6.2c-0.1,2.7-0.2,5.4-0.4,8.1c-0.1,2.7-0.2,5.4-0.4,8.1c-4,0.3-8,0.6-11.9,0.9c0,1.8,0,3.7,0,5.5
			c3.4,0,6.9,0,10.3,0c-0.2,4.5-0.4,9-0.6,13.5c-3.3,0.1-6.5,0.3-9.8,0.4c0,8.6,0,17.2,0,25.7c-4.7,0.1-9.4,0.3-14.1,0.4
			c0.3-20.9,0.6-41.8,0.9-62.7C160.5,6.1,169.2,6.2,177.9,6.2z"/>
		<path class="st0" d="M194.6,7.8c-1.2,19.7-2.4,39.4-3.6,59.2c-3.9,0.3-7.9,0.6-11.8,0.9c0.1-19.6,0.2-39.3,0.3-58.9
			C184.5,8.5,189.5,8.2,194.6,7.8z"/>
		<path class="st0" d="M229.5,60.6c-0.9,1.7-2,3.2-3.3,4.4c-1.3,1.3-2.7,2.3-4.2,3.1c-1.5,0.8-3,1.4-4.5,1.8s-3,0.6-4.4,0.6
			c-2.7,0-5.2-0.8-7.4-2.4c-2.3-1.5-4.2-3.6-5.8-6.3s-2.9-5.8-3.8-9.4c-0.9-3.6-1.3-7.5-1.3-11.6c0-3.2,0.3-6.2,0.8-9.3
			c0.5-3,1.2-5.9,2.1-8.5c0.9-2.7,2-5.1,3.3-7.4c1.3-2.2,2.7-4.2,4.4-5.8c1.6-1.6,3.4-2.8,5.3-3.7c1.9-0.9,4-1.3,6.1-1.3
			c0.8,0,1.7,0.1,2.6,0.2c0.9,0.1,1.8,0.3,2.7,0.6c0.9,0.3,1.8,0.6,2.7,1.1c0.9,0.4,1.6,1,2.3,1.6c-0.4,5.5-0.7,11.1-1.1,16.6
			c-1-0.6-2.1-1.1-3.2-1.3c-1.1-0.2-2.2-0.4-3.3-0.4c-1.5,0-2.9,0.3-4.2,1s-2.5,1.7-3.4,3c-1,1.3-1.8,2.9-2.4,4.8
			c-0.6,1.9-0.9,4.1-0.9,6.5c0,1.5,0.1,3,0.3,4.4s0.6,2.7,1.1,3.8s1.2,2,2,2.7s1.7,1,2.7,1c0.7,0,1.4-0.1,2.2-0.4
			c0.8-0.3,1.4-0.8,2-1.5c0.1-1.1,0.1-2.3,0.2-3.4c-2.2-0.1-4.5-0.2-6.7-0.3c0.2-4.3,0.3-8.7,0.5-13c2.8-0.1,5.6-0.2,8.4-0.3
			c2.8-0.1,5.6-0.2,8.4-0.3C229.5,41.1,229.5,50.9,229.5,60.6z"/>
		<path class="st0" d="M264.5,70.2c-4.7,0.2-9.3,0.5-14,0.7c0.1-6.7,0.2-13.4,0.3-20.1c-2.1,0-4.3-0.1-6.4-0.1
			c-0.3,6.3-0.5,12.7-0.8,19c-4.2-0.1-8.3-0.2-12.5-0.2c0.7-20.4,1.4-40.7,2.1-61.1c4.5,0.4,9,0.8,13.4,1.2
			c-0.5,10.4-1,20.8-1.5,31.2c2.1,0,4.2,0.1,6.2,0.1c0.3-11.2,0.5-22.4,0.8-33.5c4.3,0.3,8.6,0.5,12.9,0.8
			C264.9,28.8,264.7,49.5,264.5,70.2z"/>
		<g>
			<path class="st0" d="M302.1,0.1c-0.3,7.3-0.7,14.5-1,21.8c-3.1,0.3-6.2,0.6-9.3,0.8c-1.2,15.7-2.5,31.2-3.7,46.5
				c-4.3-0.4-8.7-0.7-13-1.1c0.4-14.7,0.8-29.4,1.2-44c-3.1,0.3-6.2,0.6-9.3,0.9c0.3-7,0.6-14.1,0.9-21.1
				C279.3,2.6,290.7,1.4,302.1,0.1z"/>
		</g>
	</g>
</g>
<g>
	<path class="st0" d="M313.3,27.2c0.2,1.5,0.2,2.8,0.1,3.9c-0.3,4.1-2.3,5.7-5.8,5.5c-2.1-0.2-3.5-1.3-4-2.9c-0.8,1.8-2.6,2.8-5,2.6
		c-4-0.3-5.3-3-5-7.4c0.1-0.9,0.2-1.8,0.5-2.9C294.1,25.9,303.1,26.6,313.3,27.2z M298.9,32.4c1.9,0.2,3-0.6,3.2-2.3l-5.7-0.4
		C296.2,31.3,296.8,32.3,298.9,32.4z M304.9,30.3c-0.2,1.6,0.7,2.5,2.5,2.7c1.9,0.2,2.9-0.5,2.9-2.2L304.9,30.3z"/>
	<path class="st0" d="M312.3,39.5c0,0-0.1,2.2-0.5,7.8c0,0-1.5-0.1-3.7-0.3c0,0,0.2-2.3,0.2-4.1c0,0-1.7-0.2-4.5-0.3
		c0,0.2-0.1,1.4-0.3,3.5c0,0-1.5-0.1-3.5-0.3c0,0,0.1-1.5,0.3-3.5c-1.3-0.1-2.6-0.2-4.1-0.2c0,0-0.2,1.6-0.5,4c0,0-1.2-0.1-3.5-0.3
		c0,0,0.4-3.5,0.8-7.6C293.1,38.2,301.1,38.7,312.3,39.5z"/>
	<path class="st0" d="M311.6,49.2c0,0-0.3,2.9-0.7,9.4c0,0-1.4-0.2-3.7-0.3c0,0,0.1-1.1,0.3-2.8c-2.8-0.2-7.5-0.6-15.9-1.2
		c0,0,0.1-1.3,0.3-3.7c0,0,6.2,0.5,15.9,1.2L308,49C308,49,309,49.1,311.6,49.2z"/>
	<path class="st0" d="M310.6,62.4c-0.1,3-0.3,5.3-0.3,5.3s-9.8,0.5-20.2,1.4c0,0,0.2-1.5,0.3-3.9c0,0,1.2,0,3.8-0.1
		c0.1-0.6,0.1-1.5,0.2-2.8l-3-0.5c0,0,0.1-1.2,0.4-3.7C291.8,58.2,299.1,59.9,310.6,62.4z M297.5,62.9c0,0-0.1,0.7-0.2,2.1
		c2.6,0,5.8-0.1,9.9-0.3C305.7,64.4,302.1,63.7,297.5,62.9z"/>
</g>
</svg>
