<?xml version="1.0" encoding="utf-8"?>
<!-- Generator: Adobe Illustrator 21.0.2, SVG Export Plug-In . SVG Version: 6.00 Build 0)  -->
<svg version="1.1" id="Calque_1" xmlns="http://www.w3.org/2000/svg" xmlns:xlink="http://www.w3.org/1999/xlink" x="0px" y="0px"
	 viewBox="0 0 304 73.1" style="enable-background:new 0 0 304 73.1;" xml:space="preserve">
<style type="text/css">
	.st0{fill:#1D1D1B;}
</style>
<g>
	<g>
		<g>
			<path class="st0" d="M38.6,51.4c0.1,2.4-0.2,4.5-0.8,6.4c-0.6,1.8-1.4,3.5-2.4,4.9c-1,1.4-2.2,2.7-3.5,3.7
				c-1.3,1.1-2.7,2-4.2,2.7c-1.5,0.8-2.9,1.4-4.4,1.8c-1.5,0.5-2.9,0.8-4.1,1.1c-1.3,0.3-2.6,0.5-3.9,0.6c-1.4,0.1-2.7,0.2-4.1,0.1
				c-1.4-0.1-2.7-0.3-4-0.7c-1.3-0.4-2.6-0.9-3.8-1.7C2.6,47.9,1.9,25.4,1.1,3c1.1-0.7,2.4-1.2,3.7-1.7c1.3-0.5,2.6-0.8,4-1
				c1.4-0.2,2.7-0.3,4.1-0.4c1.4,0,2.7,0.1,4,0.3c1.5,0.2,3,0.6,4.5,1.1c1.5,0.5,3,1.2,4.4,2c1.4,0.8,2.7,1.9,4,3
				c1.2,1.2,2.3,2.5,3.3,4.1c0.9,1.6,1.7,3.3,2.3,5.3c0.6,2,0.9,4.2,0.9,6.7c0,1.6-0.1,3.2-0.4,4.6c-0.3,1.4-0.7,2.7-1.3,3.9
				c-0.6,1.2-1.3,2.2-2.2,3c-0.9,0.8-1.9,1.5-3,1.9c1.4,0.5,2.6,1.2,3.7,2.2c1.1,0.9,2.1,2.1,2.9,3.4c0.8,1.3,1.4,2.9,1.9,4.5
				C38.3,47.6,38.6,49.5,38.6,51.4z M18.3,41.8c-0.6,0-1.2,0.2-1.7,0.4c0.1,3.7,0.1,7.4,0.2,11.2c0.3,0.1,0.6,0.1,0.9,0.2
				c0.3,0,0.6,0.1,0.9,0c0.4,0,0.9-0.2,1.4-0.4c0.5-0.2,1-0.5,1.4-1c0.4-0.5,0.8-1.1,1.1-1.9c0.3-0.8,0.4-1.7,0.4-2.9
				c0-1.2-0.2-2.2-0.5-2.9c-0.3-0.7-0.7-1.3-1.1-1.7c-0.4-0.4-0.9-0.7-1.4-0.8C19.2,41.9,18.7,41.8,18.3,41.8z M22.2,26.1
				c0-0.9-0.2-1.7-0.4-2.4c-0.3-0.7-0.6-1.2-1-1.6c-0.4-0.4-0.8-0.8-1.2-1c-0.4-0.2-0.8-0.3-1.1-0.3c-0.4,0-0.8,0.1-1.2,0.2
				c-0.4,0.2-0.8,0.4-1.1,0.6c0,3.6,0.1,7.2,0.1,10.9c0.5,0,1.1-0.1,1.8-0.2c0.7-0.1,1.4-0.4,2-0.9c0.6-0.4,1.2-1.1,1.6-1.9
				C22.1,28.7,22.3,27.6,22.2,26.1z"/>
		</g>
		<path class="st0" d="M73.1,21c0,2.1,0,4.5-0.1,7.1c-0.1,2.6-0.3,5.2-0.5,8c-0.3,2.8-0.6,5.6-1,8.4c-0.4,2.8-1,5.6-1.6,8.2
			c-0.7,2.6-1.4,5.1-2.3,7.4c-0.9,2.3-1.9,4.3-3.1,6c-1.2,1.7-2.5,3.1-4,4.1c-1.5,1-3.1,1.5-5,1.6c-2.2,0-4-0.5-5.7-1.5
			c-1.6-1.1-3-2.5-4.2-4.3c-1.2-1.8-2.2-3.9-2.9-6.4c-0.8-2.4-1.4-5-1.9-7.7c-0.5-2.7-0.8-5.5-1.1-8.4c-0.2-2.8-0.4-5.6-0.4-8.2
			c-0.1-4.1-0.1-8.1,0.1-12.2c0.2-4,0.4-8.1,0.8-12.1c4.4,0.2,8.8,0.3,13.2,0.5c-0.4,4.6-0.8,9.1-1,13.7c-0.3,4.6-0.4,9.2-0.3,13.9
			c0,0.5,0,1.2,0.1,2.2c0,1,0.1,2.1,0.2,3.3c0.1,1.2,0.2,2.4,0.4,3.7c0.2,1.3,0.4,2.4,0.6,3.4c0.3,1,0.6,1.9,0.9,2.5
			c0.4,0.7,0.8,1,1.2,1c0.5,0,1-0.4,1.4-1.2c0.4-0.8,0.8-1.9,1.1-3.2c0.3-1.3,0.6-2.9,0.8-4.6c0.2-1.7,0.4-3.6,0.5-5.4
			c0.1-1.9,0.2-3.8,0.3-5.7c0.1-1.9,0.1-3.6,0.2-5.3c0-1.6,0-3.1,0-4.3c0-1.2,0-2.2,0-2.8c0-2.3-0.1-4.5-0.2-6.8
			c-0.1-2.2-0.2-4.5-0.3-6.7c4.4-0.1,8.8-0.2,13.2-0.2C72.9,12.9,73,16.9,73.1,21z"/>
		<path class="st0" d="M90.4,7.9c-0.8,19.7-1.6,39.5-2.3,59.2c-3.9,0.4-7.8,0.7-11.8,1.1C76,48.6,75.7,29,75.4,9.3
			C80.4,8.9,85.4,8.4,90.4,7.9z"/>
		<path class="st0" d="M117.5,44.1c-0.3,6.4-0.7,12.9-1,19.3c-7.8,1-15.7,2-23.5,3.1c0-10.1,0-20.2,0-30.2c0-10,0.1-20.1,0.1-30.2
			C98,6.1,102.9,6,107.8,6c-0.4,6.3-0.7,12.7-1.1,19c-0.3,6.3-0.6,12.7-0.7,19.2c0.9,0,1.7,0.1,2.6,0.1c0.9,0,1.7,0,2.6,0
			c1,0,2.1,0,3.1-0.1C115.4,44.1,116.4,44.1,117.5,44.1z"/>
		<path class="st0" d="M150.5,34.2c0,4.1-0.3,7.7-1,11c-0.7,3.3-1.6,6.2-2.8,8.7c-1.2,2.5-2.6,4.7-4.3,6.5c-1.7,1.8-3.5,3.3-5.4,4.5
			c-2,1.2-4.1,2.1-6.3,2.6c-2.2,0.6-4.5,0.9-6.8,0.9c-0.9,0-1.7,0-2.6-0.1c-0.8-0.1-1.7-0.2-2.6-0.3c0.1-19.4,0.2-38.9,0.4-58.3
			c2.1-1,4.2-1.8,6.4-2.2c2.2-0.4,4.4-0.7,6.5-0.7c2.7,0,5.2,0.6,7.4,1.8c2.3,1.2,4.2,3,5.9,5.4c1.6,2.3,2.9,5.2,3.8,8.6
			C150.1,26.1,150.5,29.9,150.5,34.2z M139,37c0-1.6-0.1-3.1-0.3-4.5c-0.2-1.4-0.6-2.7-1.2-3.8c-0.5-1.1-1.2-2-2-2.7
			c-0.8-0.7-1.8-1-3-1.1c-0.3,9-0.7,18-1,27c1.1-0.3,2.1-0.8,3-1.7c0.9-0.9,1.7-2,2.4-3.3c0.7-1.3,1.2-2.7,1.5-4.3
			c0.4-1.6,0.6-3.2,0.6-4.9C139,37.4,139,37.2,139,37z"/>
		<path class="st0" d="M179,6.1c-0.1,2.7-0.2,5.4-0.4,8.1c-0.1,2.7-0.2,5.4-0.4,8.1c-4,0.3-8,0.6-11.9,0.9c0,1.8,0,3.7,0,5.5
			c3.4,0,6.9,0,10.3,0c-0.2,4.5-0.4,9-0.6,13.5c-3.3,0.1-6.5,0.3-9.8,0.4c0,8.6,0,17.2,0,25.7c-4.7,0.1-9.4,0.3-14.1,0.4
			c0.3-20.9,0.6-41.8,0.9-62.7C161.6,6,170.3,6.1,179,6.1z"/>
		<path class="st0" d="M195.7,7.7c-1.2,19.7-2.4,39.4-3.6,59.2c-3.9,0.3-7.9,0.6-11.8,0.9c0.1-19.6,0.2-39.3,0.3-58.9
			C185.6,8.4,190.6,8.1,195.7,7.7z"/>
		<path class="st0" d="M230.6,60.5c-0.9,1.7-2,3.2-3.3,4.4c-1.3,1.3-2.7,2.3-4.2,3.1c-1.5,0.8-3,1.4-4.5,1.8c-1.5,0.4-3,0.6-4.4,0.6
			c-2.7,0-5.2-0.8-7.4-2.4c-2.3-1.5-4.2-3.6-5.8-6.3c-1.6-2.7-2.9-5.8-3.8-9.4c-0.9-3.6-1.3-7.5-1.3-11.6c0-3.2,0.3-6.2,0.8-9.3
			c0.5-3,1.2-5.9,2.1-8.5c0.9-2.7,2-5.1,3.3-7.4c1.3-2.2,2.7-4.2,4.4-5.8c1.6-1.6,3.4-2.8,5.3-3.7c1.9-0.9,4-1.3,6.1-1.3
			c0.8,0,1.7,0.1,2.6,0.2c0.9,0.1,1.8,0.3,2.7,0.6c0.9,0.3,1.8,0.6,2.7,1.1c0.9,0.4,1.6,1,2.3,1.6c-0.4,5.5-0.7,11.1-1.1,16.6
			c-1-0.6-2.1-1.1-3.2-1.3c-1.1-0.2-2.2-0.4-3.3-0.4c-1.5,0-2.9,0.3-4.2,1c-1.3,0.7-2.5,1.7-3.4,3c-1,1.3-1.8,2.9-2.4,4.8
			c-0.6,1.9-0.9,4.1-0.9,6.5c0,1.5,0.1,3,0.3,4.4c0.2,1.4,0.6,2.7,1.1,3.8c0.5,1.1,1.2,2,2,2.7c0.8,0.7,1.7,1,2.7,1
			c0.7,0,1.4-0.1,2.2-0.4c0.8-0.3,1.4-0.8,2-1.5c0.1-1.1,0.1-2.3,0.2-3.4c-2.2-0.1-4.5-0.2-6.7-0.3c0.2-4.3,0.3-8.7,0.5-13
			c2.8-0.1,5.6-0.2,8.4-0.3c2.8-0.1,5.6-0.2,8.4-0.3C230.6,41,230.6,50.8,230.6,60.5z"/>
		<path class="st0" d="M265.6,70.1c-4.7,0.2-9.3,0.5-14,0.7c0.1-6.7,0.2-13.4,0.3-20.1c-2.1,0-4.3-0.1-6.4-0.1
			c-0.3,6.3-0.5,12.7-0.8,19c-4.2-0.1-8.3-0.2-12.5-0.2c0.7-20.4,1.4-40.7,2.1-61.1c4.5,0.4,9,0.8,13.4,1.2
			c-0.5,10.4-1,20.8-1.5,31.2c2.1,0,4.2,0.1,6.2,0.1c0.3-11.2,0.5-22.4,0.8-33.5c4.3,0.3,8.6,0.5,12.9,0.8
			C266,28.7,265.8,49.4,265.6,70.1z"/>
		<g>
			<path class="st0" d="M303.2,0c-0.3,7.3-0.7,14.5-1,21.8c-3.1,0.3-6.2,0.6-9.3,0.8c-1.2,15.7-2.5,31.2-3.7,46.5
				c-4.3-0.4-8.7-0.7-13-1.1c0.4-14.7,0.8-29.4,1.2-44c-3.1,0.3-6.2,0.6-9.3,0.9c0.3-7,0.6-14.1,0.9-21.1
				C280.4,2.5,291.8,1.3,303.2,0z"/>
		</g>
	</g>
</g>
</svg>
