<?xml version="1.0" encoding="utf-8"?>
<!-- Generator: Adobe Illustrator 21.0.2, SVG Export Plug-In . SVG Version: 6.00 Build 0)  -->
<svg version="1.1" id="Calque_1" xmlns="http://www.w3.org/2000/svg" xmlns:xlink="http://www.w3.org/1999/xlink" x="0px" y="0px"
	 viewBox="0 0 311.5 201" style="enable-background:new 0 0 311.5 201;" xml:space="preserve">
<style type="text/css">
	.st0{fill:#FFFFFF;}
	.st1{fill:#010202;}
</style>
<g>
	<path d="M38.1,125c-0.2-0.7,61-32.4,223.5,0.8v-2.5l38.4-4.6l-0.6,28.7l12.1,1.7l-3.2,51.9C144.5,186.8,2,200.9,2,200.9l-2-76.3
		C0,124.6,9.9,115,38.1,125z"/>
	<g>
		<path class="st0" d="M141.6,21.1c0,0,2-1.2,6.1,0.4c4,1.6,30,12.3,30,12.3l2.3,0.9l1.5,51.2c0,0-2,4.1-3.4,4
			c-1.5-0.1-42.2,18.9-42.2,18.9L141.6,21.1z"/>
		<g>
			<path class="st1" d="M241.7,79.6c0.4,0.2,0.8,0.3,1.2,0.5s0.7,0.6,1,0.9c-0.4,0.2-0.7,0.4-1.1,0.5c-0.6,0.2-1.3,0.2-2,0.4
				c-0.2,0.1-0.6,0.3-0.6,0.4c0,0.2,0.2,0.5,0.4,0.7c0.2,0.1,0.4,0.1,0.6,0.3c0.3,0.3,0.6,0.6,0.9,0.8c-0.3,0.2-0.7,0.4-1,0.5
				c-1.2,0.3-2.5,0.5-4.1,0.7c0.6,0.4,1,0.7,1.4,0.9c0.4,0.2,0.8,0.3,1.2,0.6c0.4,0.3,0.4,0.8-0.1,0.9c-1.1,0.2-2.1,0.7-3.2,0.1
				c-0.4-0.2-1-0.2-1.5-0.3c0,0.1-0.1,0.3-0.1,0.4c1,0.5,2,0.9,3.2,1.5c-1.7,1.2-3.5,0.7-5,1c0,0.1,0,0.2,0,0.4c1,0.5,2,0.9,3.3,1.5
				c-1.2,0.8-2.8,0.5-3,2.3c0.2,0.1,0.6,0.3,1.1,0.6c-2.1,1.3-3.9,0.7-5.9,0.2c0.5,1.8,2.6,1,3.2,2.5c-0.6,0.1-1.2,0.3-1.7,0.4
				c-0.8,0.2-1.7,0.2-2.5,0.4c-0.3,0.1-0.5,0.4-0.7,0.5c0.2,0.2,0.4,0.6,0.7,0.7c0.5,0.2,1.1,0.3,1.6,0.6c0.5,0.3,0.6,0.8-0.1,0.9
				c-1.2,0.2-2.5,0.3-3.7,0.4c-0.4,0-0.7,0.1-1.1,0.2c0.3,0.2,0.6,0.5,0.9,0.7c0.8,0.3,1.6,0.6,2.3,0.9c0,0.2,0,0.3-0.1,0.5
				c-0.8,0.2-1.6,0.4-2.4,0.6c0,0.2,0,0.3,0,0.4s0.1,0.2,0.1,0.3c0.4,1.3,0.1,1.6-1.2,1.8c-0.8,0.1-1.6,0.4-2.5,0.6
				c-0.3,0.1-0.6,0-1,0s-0.8,0.1-1.2,0.1c0.3,0.3,0.6,0.7,1,0.9c0.3,0.2,0.7,0.1,1.1,0.3c0.4,0.2,0.9,0.4,1.3,0.6
				c-2,0.7-3.9,1.1-5.9,1.5c-0.3,0.1-0.6,0.2-0.9,0.3c0.2,0.2,0.4,0.6,0.7,0.7c0.6,0.2,1.2,0.3,1.8,0.4c0.6,0.2,1.1,0.4,1.7,0.6
				c0,0.1,0,0.2-0.1,0.4c-0.3,0.1-0.6,0.3-0.9,0.3c-1.2,0.2-2.4,0.3-3.6,0.5c-0.4,0.1-0.8,0.2-1.3,0.4c0.4,0.3,0.7,0.6,1.1,0.8
				c0.4,0.2,0.9,0.2,1.3,0.4c0.4,0.1,0.7,0.4,1.1,0.6c0,0.2,0,0.3,0,0.5c-2.4,0.3-4.8,0.6-7.2,0.9c0,0.1,0,0.2-0.1,0.4
				c1.4,0.5,2.8,0.9,4.3,1.4c0,0.1-0.1,0.3-0.1,0.4c-1.7,0.7-3.5,1.1-5.4,0.5c-0.1,0.6-0.1,0.9-0.1,1.2c-21,0-42.1,0-63.1,0
				c0.1-0.6,0.4-1.1,0.4-1.7c0-2.5-0.1-4.9-0.2-7.4c0-0.8-0.3-1.3-1.1-1.5c-0.2-0.1-0.5-0.5-0.6-0.8c-0.1-0.5,0.1-0.9,0.1-1.4
				c0-1,0.5-1.1,1.3-0.7c0.9,0.4,1.9,0.7,2.8,1.1c0.2-0.5,0.4-0.9,0.7-1.5c0.3,0.9,0.4,1.9,0.8,2.2c1.1,0.9,2.4,1.5,3.7,2.2
				c0.1,0.1,0.5,0,0.6-0.1s0-0.4-0.1-0.6c-0.3-0.4-0.6-0.8-0.9-1.2c-0.1-0.1,0-0.4,0-0.6c0.2,0.1,0.4,0.1,0.6,0.2
				c0.2-6.9,0.4-13.8,0.6-20.6c0.2,0,0.4,0,0.5,0c0,3.5,0.1,7.1,0,10.6c0,1.3,0.6,1.7,1.6,1.9c0.8,0.2,1.7,0.3,2.5,0.5
				c0,0.1,0,0.1,0,0.2c-1,0.1-2.1,0.1-3.3,0.2c0.9,0.6,2.8,1,3.5,0.8c0.2-0.1,0.4-0.3,0.4-0.4c0.4-1.3-0.1-1.9-1.4-1.9
				c-0.3,0-0.7,0-1,0.1c-0.8,0.1-1.2-0.2-1.2-1c0-2.1-0.1-4.1-0.2-6.2c0-2.9,0-5.8-0.1-8.7c0-1.1-0.5-2-1.6-2.5
				c-0.1,0.5-0.2,1-0.3,1.5c-0.4,2.1-0.9,4.1-1.2,6.2c-0.1,0.4-0.2,1.1,0,1.3c0.9,0.7,0.1,1.4,0.2,2.1c-0.1-0.1-0.1-0.3-0.2-0.4
				h-0.1c0,1.4,0,2.9,0,4.5c0.4-0.6,0.6-1.1,0.9-1.6c0.1,0.6,0.2,1.3,0.2,1.9c-0.2,3.4-0.5,6.7-0.7,10.1c0,0.5-0.1,1-0.2,1.9
				c-0.8-0.8-1.7-1.3-1.9-2c-0.3-0.9,0-2,0.1-3c0.1,0,0.2,0,0.3,0c0,0.1,0.1,0.3,0.1,0.4c0.1,0,0.2,0,0.3,0
				c-0.1-1.8-0.2-3.5-0.3-5.3c0-0.2,0.1-0.4,0.2-0.6c0.1-0.3,0.3-0.6,0.4-1c0.2-2.4,0.4-4.8,0.5-7.3c0-2-0.2-4-0.3-6
				c-0.1,0-0.2,0-0.3,0c0,0.7,0,1.4,0,2.1c-0.2-0.2-0.2-0.4-0.2-0.6c-0.2-0.6-0.3-1.2-0.5-1.8c-0.9,0.4-0.5,1.2-0.5,1.8
				c-0.1,6.5-0.1,13-0.2,19.5c0,0.4-0.1,0.8-0.2,1.2c-0.1,0-0.3,0-0.4,0c0-7.3,0-14.6,0-22.1c-0.6,0.1-0.9,0.1-1.5,0.2
				c0,3.9,0,7.7,0,11.5c-0.2,0-0.3,0-0.5,0c-0.1-5.5-0.3-11-0.4-16.5c-0.1,0-0.2,0-0.3,0c0,1.3-0.1,2.7,0,4
				c0.4,6.5,0.7,12.9,1.2,19.4c0.1,0.8,0.2,1.5-0.5,2c-2.6-0.8-2.6-0.8-3.1-0.5c0-6.2,0-12.4,0-18.6c0.1,0,0.3,0,0.4,0
				c0,1.9,0.2,3.7,0.1,5.6c0,2.7-0.2,5.5-0.3,8.2c0,0.3,0.2,0.7,0.3,1c0.4-2.3,0.5-4.5,0.7-6.7c0-0.2,0.2-0.4,0.2-0.6
				c0.2-1.3,0.6-2.6,0.4-3.8c-0.4-3.3-1-6.6-1.5-9.9c0-0.2-0.2-0.4-0.4-0.9c-0.1,0.7-0.2,1-0.2,1.4c-0.2,3.6-0.5,7.1-0.6,10.7
				c-0.2,7.3-0.2,14.5-0.3,21.8c0,2.6-0.2,5.1-0.3,7.7c-0.1,0-0.1,0-0.2,0c-0.1-2-0.2-4-0.3-5.9c-0.1-5.2-0.1-10.4-0.2-15.6
				c0-2.9,0-5.9,0.1-8.8c0.2-3.4,0.5-6.8,0.7-10.1c0-0.4-0.1-0.8-0.1-1.2c-0.1,0-0.2,0-0.4,0c-0.1,0.4-0.3,0.9-0.4,1.3
				c-0.1,0.8-0.1,1.7-0.2,2.5c-0.3,3.8-0.7,7.6-0.8,11.3c-0.1,8.8,0,17.7,0,26.5c-0.4,0-0.9,0-1.3,0c0-0.4,0-0.8,0-1.2
				c0.2-5.1,0.5-10.3,0.6-15.4c0.1-4.7,0.1-9.4,0.1-14c0-3.6-0.1-7.2-0.2-10.8c0-0.3-0.3-0.5-0.4-0.8c-0.1,0.3-0.4,0.5-0.4,0.8
				c-0.1,1.1-0.1,2.3-0.1,3.4c0,8.1,0.1,16.1,0.1,24.2c0,4.6-0.3,9.3-0.5,13.9c-20.8,0-41.6,0-62.4,0c0.3-0.7,0.9-1.5,0.7-2.1
				c-0.6-2.2-0.2-7-0.2-7.9c0-0.6,0.6-4.1,0.6-4.3c0.4-2.1,0.8-4.2,1.2-6.3c0.1-0.5-0.1-1-0.2-1.5s-0.6-1-0.6-1.5
				c0-1.2,0-2.4,0.1-3.5c0.1-1.6,0.4-3.2,0.4-4.8c0.1-1.6-0.1-3.2-0.1-4.9c0-0.3,0-0.7,0.2-1c0.8-0.9,1-2.1,1.1-3.2
				c0-0.3,0.4-0.7,0.7-0.7c2.5-0.4,4.9-0.8,7.4-1.1c3.3-0.4,6.6-0.8,10-1.1c3.3-0.4,6.7-0.7,10-1.1c0.5-0.1,1.2,0,1-0.8
				c-0.4-0.4-0.8-0.8-0.8-1.3c-0.2-1.4,1.2-0.8,1.8-1.2c0-0.9,0-0.9-0.8-1.2c-1-0.3-2.1-0.6-3.1-1c-0.3-0.1-0.6-0.6-0.7-1
				c-0.1-0.6,0.2-0.9,0.9-1c0.4,0,0.9-0.2,1.3-0.3c0-0.1,0-0.2,0-0.3c-0.3-0.1-0.7-0.3-1-0.4c-1-0.3-2.1-0.6-3-1
				c-0.3-0.1-0.7-0.6-0.7-1c-0.1-0.6,0.2-0.9,0.9-1c0.4,0,0.7-0.2,1.1-0.3c0-0.1,0-0.2,0-0.3c-0.3-0.1-0.6-0.3-0.8-0.4
				c-1.1-0.3-2.1-0.7-3.2-1c-0.7-0.2-0.8-0.7-0.6-1.2c0.1-0.3,0.4-0.6,0.8-0.8s0.9-0.2,1.3-0.3c0-0.1,0-0.2,0-0.3
				c-0.3-0.1-0.6-0.3-0.9-0.4c-1-0.3-2-0.6-3-0.9c-0.6-0.2-0.9-0.5-0.8-1.2s0.4-0.9,1-0.9c0.4,0,0.8-0.1,1.2-0.2
				c0.2-0.1,0.4-0.3,0.5-0.5c-0.2-0.2-0.3-0.4-0.5-0.4c-1.2-0.4-2.3-0.7-3.5-1.1c-1.5-0.5-1.6-0.5-1.2-2.1c0.5-0.1,1-0.2,1.5-0.4
				c-1.2-0.6-2.4-1-3.6-1.4c-0.7-0.2-0.9-0.7-0.7-1.3c0.1-0.3,0.6-0.6,0.9-0.8c0.4-0.2,0.8-0.2,1.2-0.3c0-0.1,0-0.2,0.1-0.3
				c-0.3-0.2-0.6-0.4-1-0.5c-1-0.4-2.1-0.7-3.1-1c-0.4-0.1-0.7-0.4-0.6-1.1c0-0.7,0.3-0.9,0.9-1c0.4,0,0.8-0.2,1.1-0.3
				c0-0.1,0.1-0.2,0.1-0.3c-0.3-0.2-0.6-0.5-1-0.6c-1-0.4-2.1-0.7-3.1-1.1c-0.3-0.1-0.6-0.6-0.6-1c0-0.3,0.3-0.7,0.6-1
				c0.2-0.2,0.5-0.2,1-0.3c-1.4-0.5-2.5-1-3.6-1.3c-0.7-0.2-1.1-0.6-1-1.4c0.1-0.8,0.6-0.8,1.1-0.9c0.3-0.1,0.6-0.3,0.9-0.5
				c-0.3-0.3-0.5-0.7-0.8-0.8c-1.1-0.5-2.3-0.9-3.4-1.2c-0.8-0.2-0.8-0.8-0.6-1.3c0.1-0.3,0.4-0.7,0.8-0.8c0.8-0.2,1.7-0.3,2.8-0.5
				c-1.9-0.7-3.6-1.2-5.2-1.8c-0.3-0.1-0.7-0.6-0.8-1c-0.3-1.1,0.5-1.1,1.3-1.3c4.6-0.8,9.2-1.7,13.8-2.6c1.9-0.4,3.8-0.7,5.8-1
				c2.9-0.4,5.8-0.7,8.7-1.2c2.5-0.4,4.9-1,7.3-1.5c3.1-0.6,6.2-1.2,9.2-1.8c1.4-0.3,12.5-0.6,12.8-0.4c1,0.6,2.1,1.5,3.5,0.8
				c0.3-0.1,1.1,0.1,1.1,0.3c0.1,0.5,0.6,1.2-0.4,1.4c-0.2,0-0.3,0.4-0.4,0.7c-0.1,1.2-0.1,2.4-0.1,3.6c0,0.3,0.3,0.8,0.6,1
				c1.3,0.7,1.5,1.4,0.9,3c-0.5-0.1-0.9-0.3-1.4-0.4c-0.1,0.2-0.2,0.3-0.2,0.4c0,2.2-0.1,4.5-0.1,6.7c0,0.3,0.3,0.6,0.6,0.8
				c0.8,0.6,0.8,1.7,0,2.3c-0.1,0.1-0.3,0.3-0.3,0.4c-0.2,1-0.4,2-0.4,3c-0.1,3.6-0.1,7.2-0.1,10.8c0,0.5,0.3,1,0.4,1.6
				c0,0-0.1,0-0.3,0c-0.4,0.1-1.1,0.1-1.1,0.3c-0.1,0.7-0.3,1.8,0,1.9c1,0.5,0.8,1.2,0.7,2c-0.1,3.1-0.2,6.3-0.3,9.4
				c0,0.7,0.1,1.3,0.2,2c-0.2,0.5-0.4,0.9-0.6,1.5c0.6,0,1,0,1.4,0c-0.7,0.3-1.2,0.7-0.9,1.6c-0.1,0.1-0.3,0.1-0.4,0.2
				c-0.5,1.4,0.1,2.7,1.4,3.4c1.2,0.6,2.4,1.2,3.7,1.8c0.5,0.2,1,0.6,1.5,0.5c0.4,0,0.8-0.5,1.2-0.9c0,0.1,0,0.3,0,0.4
				c0,1.8-0.1,3.6,0.6,5.2c0.1,0.3,0.6,0.5,0.9,0.5c0.9-0.1,1.7-0.3,2.7-0.4c0.3-1.3-0.6-2.6-2.1-2.6c-0.1,0.4-0.3,0.9-0.4,1.3
				c-0.2,0-0.3,0-0.5-0.1c0-0.8,0-1.6,0-2.4c0-0.1,0.4-0.4,0.6-0.4c1.3,0.2,2.7,0.2,3.9,0.6c2.1,0.7,4.2,1.6,6.3,2.3
				c0.9,0.3,1.9,0.4,3,0.6c-0.9-2.1-2.1-3.4-4.2-4c-4.4-1.2-8.8-2.6-13.2-4c-1.4-0.5-2.7-1.3-4-1.9c4.2,1.2,8.3,2.5,12.6,3.7
				c0.1-1,0.2-1.7,0.2-2.4c0.2,0,0.3,0,0.5,0c0.1,0.5,0.1,1.1,0.3,1.6c0.1,0.4,0.2,1.1,0.5,1.2c1.6,0.6,3.3,1.2,5,1.7
				c0.1-0.9,0.1-1.7,0.2-2.5c0.1,0,0.3,0,0.4,0c0.1,0.3,0.3,0.6,0.3,0.9c-0.2,1.5,0.7,2.6,1.4,3.8c0.2,0.4,0.5,1,0.8,1
				c0.9,0,0.8,0.6,1,1.1c0.3,0.8,0.7,1.7,1.1,2.5c0.1,0,0.2-0.1,0.3-0.1c-0.2-0.6-0.3-1.3-0.5-2c0.3,0,0.6-0.1,0.8,0
				c2.5,0.8,5,1.4,7.4,2.4c2.1,0.9,2.6,0.9,3.6-1.2c-1.4-0.5-2.9-1-4.3-1.6c-1.4-0.6-2.8-1.2-4-1.9c-0.4-0.2-0.6-1-0.9-1.5
				c0.5,0,1.1-0.1,1.6,0c0.9,0.2,1.7,0.8,2.8,0c0.1,0.9,0.1,1.7,0.2,2.7c0.1-0.8,0.1-1.3,0.1-2c1.7,0.5,3.3,1,4.9,1.5
				c0.2,0.1,0.5,0.3,0.6,0.5c0.3,1.1,1.1,1,1.9,0.9c0.8-0.1,1.5-0.2,2.3-0.3c3-0.4,5.9-0.8,8.9-1.1c3.3-0.4,6.5-0.6,9.8-1
				c2.8-0.4,5.6-0.9,8.4-1.3c4.6-0.5,9.2-0.9,13.8-1.5c3.9-0.4,7.8-1,11.7-1.5c1.2-0.1,2.3-0.3,3.6-0.4
				C240.3,78.3,241.1,79.3,241.7,79.6z M163.1,102.9c0.3-0.5,0.7-0.9,0.6-1.2c-0.1-5.4-0.1-10.9-0.5-16.2c-0.8,0.2-1.4,0.3-2.1,0.5
				c0.1,0.4,0.2,0.8,0.2,1.1c0.1-0.1,0.2-0.2,0.3-0.2c0.3,0.3,0.9,0.6,1,0.9c0.1,0.9,0,1.9,0,2.9c0.1,3.9,0.1,7.8,0.2,11.7
				C162.8,102.4,162.9,102.5,163.1,102.9z M148.1,110.4c-0.1,2.6-0.2,5-0.3,7.4c0,0.3,0.3,0.6,0.4,1c0.2-0.3,0.6-0.6,0.7-0.9
				c0.2-0.5,0.2-1,0.3-1.5c0.1,0,0.1,0,0.2,0c0.1,0.3,0.1,0.7,0.2,1c0.1,0,0.2,0,0.2,0c0-2.2,0-4.5,0-6.8
				C149.3,110.6,148.8,110.5,148.1,110.4z M169.2,88.1c0,2.6,0,5.1,0,7.7c1.4,0.1,1.5-0.7,1.6-1.6c0-1.3,0.1-2.6,0.1-3.9
				C170.9,89.5,169.9,88.2,169.2,88.1z M138.5,76.9c0,4.7,0,9.5,0,14.2c0.4-0.1,0.5-0.3,0.5-0.5c0.3-2.3,0.5-4.6,0.7-7
				c0-0.7-0.5-1.4-0.4-2.1C139.7,79.9,138.8,78.4,138.5,76.9z M165.5,97.8c-0.1,0-0.2,0-0.3,0c-0.1-1.1-0.1-2.1-0.2-3.2
				c0-1.1,0.1-2.1,0.1-3.2c0-1-0.1-2.1-0.2-3.1c-0.1,0-0.1,0-0.2,0c0,3.9,0,7.8,0,11.7c0.1,0,0.2,0.1,0.4,0.1c0.2-0.7,0.6-1.3,0.7-2
				c0.2-1.2,0.2-2.3,0.2-3.5c0-2.1-0.1-4.2-0.1-6.3c-0.1,0-0.2,0-0.3,0c0.1,1.6,0.2,3.2,0.2,4.7C165.8,94.6,165.6,96.2,165.5,97.8z
				 M157.5,90.3c0.6-1.2,0-2.6,0.8-3.7c0.1,0,0.3,0,0.4,0.1c-0.3,2.5-0.6,5.1-0.9,7.7c1.2-0.2,1.3-0.7,1.3-1.4
				c-0.1-2.3-0.1-4.6-0.2-7c0-0.4-0.6-0.7-0.9-1c-0.2,0.3-0.5,0.6-0.5,0.9C157.5,87.4,157.5,88.9,157.5,90.3z M167.5,98.3
				c0.2,0,0.3,0,0.5,0c0.1-0.2,0.2-0.4,0.2-0.6c0-3.3-0.1-6.5-0.2-9.8c0-0.3-0.3-0.6-0.5-0.9C167.5,90.9,167.5,94.6,167.5,98.3z
				 M138.2,100c0.1,0,0.2,0,0.3,0c0.1-1.7,0.3-3.3,0.4-5c0-0.3-0.2-0.6-0.4-0.8c-0.1,0.1-0.2,0.1-0.3,0.2
				C138.2,96.2,138.2,98.1,138.2,100z M155.6,107.7c0.1,0,0.3,0,0.4-0.1c0-0.5-0.2-1.2,0-1.3c0.8-0.5,0.2-1.1,0.3-1.6
				c0-0.1-0.4-0.4-0.6-0.4c-0.1,0-0.4,0.3-0.4,0.5C155.4,105.7,155.5,106.7,155.6,107.7z M153,99.9c-0.1,0-0.2,0-0.3,0
				c0,1.5,0,3.1,0,4.6c0,0,0,0,0.1,0C152.8,103,152.9,101.5,153,99.9z M158.2,106.7c0.1,0,0.1,0,0.2,0c0-0.8,0-1.5,0-2.3
				c-0.1,0-0.1,0-0.2,0C158.2,105.2,158.2,106,158.2,106.7z M138.5,107.4c0.1,0,0.2,0,0.3,0c-0.1-0.9-0.2-1.8-0.3-2.7
				c-0.1,0-0.1,0-0.2,0C138.4,105.6,138.5,106.5,138.5,107.4z"/>
			<path class="st0" d="M143.3,121.8c0.1-2.6,0.3-5.1,0.3-7.7c0.1-7.3,0.1-14.5,0.3-21.8c0.1-3.6,0.4-7.1,0.6-10.7
				c0-0.4,0.1-0.7,0.2-1.4c0.2,0.5,0.4,0.7,0.4,0.9c0.5,3.3,1.1,6.6,1.5,9.9c0.1,1.2-0.3,2.5-0.4,3.8c0,0.2-0.2,0.4-0.2,0.6
				c-0.2,2.2-0.3,4.4-0.7,6.7c-0.1-0.3-0.3-0.7-0.3-1c0.1-2.7,0.2-5.5,0.3-8.2c0-1.9-0.1-3.7-0.1-5.6c-0.1,0-0.3,0-0.4,0
				c0,6.2,0,12.4,0,18.6c0.6-0.3,0.6-0.3,3.1,0.5c0.8-0.5,0.6-1.2,0.5-2c-0.4-6.5-0.8-12.9-1.2-19.4c-0.1-1.3,0-2.7,0-4
				c0.1,0,0.2,0,0.3,0c0.1,5.5,0.3,11,0.4,16.5c0.2,0,0.3,0,0.5,0c0-3.8,0-7.6,0-11.5c0.6-0.1,0.9-0.1,1.5-0.2c0,7.4,0,14.7,0,22.1
				c0.1,0,0.3,0,0.4,0c0.1-0.4,0.2-0.8,0.2-1.2c0.1-6.5,0.1-13,0.2-19.5c0-0.6-0.4-1.4,0.5-1.8c0.2,0.6,0.4,1.2,0.5,1.8
				c0.1,0.2,0,0.4,0.2,0.6c0-0.7,0-1.4,0-2.1c0.1,0,0.2,0,0.3,0c0.1,2,0.3,4,0.3,6c0,2.4-0.3,4.9-0.5,7.3c0,0.3-0.2,0.6-0.4,1
				c-0.1,0.2-0.2,0.4-0.2,0.6c0.1,1.8,0.2,3.5,0.3,5.3c-0.1,0-0.2,0-0.3,0c0-0.1-0.1-0.3-0.1-0.4c-0.1,0-0.2,0-0.3,0
				c-0.1,1-0.3,2.1-0.1,3c0.2,0.7,1.1,1.2,1.9,2c0.1-0.9,0.2-1.4,0.2-1.9c0.2-3.4,0.5-6.7,0.7-10.1c0-0.6-0.1-1.3-0.2-1.9
				c-0.2,0.5-0.5,0.9-0.9,1.6c0-1.6,0-3.1,0-4.5h0.1c0.1,0.1,0.1,0.3,0.2,0.4c-0.1-0.7,0.7-1.4-0.2-2.1c-0.2-0.1-0.1-0.9,0-1.3
				c0.4-2.1,0.8-4.1,1.2-6.2c0.1-0.5,0.2-1,0.3-1.5c1.1,0.5,1.6,1.4,1.6,2.5c0.1,2.9,0,5.8,0.1,8.7c0,2.1,0.1,4.1,0.2,6.2
				c0,0.8,0.4,1.1,1.2,1c0.3,0,0.7-0.1,1-0.1c1.3,0,1.8,0.6,1.4,1.9c-0.1,0.2-0.2,0.4-0.4,0.4c-0.7,0.2-2.6-0.2-3.5-0.8
				c1.2-0.1,2.2-0.1,3.3-0.2c0-0.1,0-0.1,0-0.2c-0.8-0.1-1.7-0.2-2.5-0.5c-0.9-0.3-1.6-0.6-1.6-1.9c0.1-3.5,0-7.1,0-10.6
				c-0.2,0-0.4,0-0.5,0c-0.2,6.9-0.4,13.8-0.6,20.6c-0.2-0.1-0.4-0.1-0.6-0.2c0,0.2-0.1,0.5,0,0.6c0.3,0.4,0.6,0.8,0.9,1.2
				c0.1,0.1,0.1,0.5,0.1,0.6c-0.1,0.1-0.4,0.2-0.6,0.1c-1.2-0.7-2.6-1.4-3.7-2.2c-0.5-0.4-0.5-1.3-0.8-2.2c-0.3,0.6-0.4,1-0.7,1.5
				c-0.9-0.4-1.9-0.7-2.8-1.1c-0.8-0.3-1.3-0.3-1.3,0.7c0,0.5-0.2,1-0.1,1.4c0,0.3,0.3,0.7,0.6,0.8c0.8,0.2,1.1,0.8,1.1,1.5
				c0.1,2.5,0.2,4.9,0.2,7.4c0,0.6-0.2,1.1-0.4,1.7c-0.3,0-0.6,0-0.9,0c-0.2-2.4-0.4-4.9-0.6-7.3c-0.1,0-0.1,0-0.2,0
				c-0.2,2.4-0.4,4.9-0.5,7.3C143.6,121.8,143.4,121.8,143.3,121.8z"/>
			<path class="st0" d="M141.7,121.8c0-8.8-0.1-17.7,0-26.5c0-3.8,0.5-7.6,0.8-11.3c0.1-0.8,0.1-1.7,0.2-2.5
				c0.1-0.4,0.2-0.9,0.4-1.3c0.1,0,0.2,0,0.4,0c0,0.4,0.2,0.8,0.1,1.2c-0.2,3.4-0.6,6.7-0.7,10.1c-0.1,2.9-0.1,5.9-0.1,8.8
				c0,5.2,0.1,10.4,0.2,15.6c0,2,0.2,4,0.3,5.9C142.6,121.8,142.2,121.8,141.7,121.8z"/>
			<path class="st0" d="M139.5,121.8c0.2-4.6,0.5-9.3,0.5-13.9c0.1-8.1-0.1-16.1-0.1-24.2c0-1.1,0-2.3,0.1-3.4
				c0-0.3,0.3-0.5,0.4-0.8c0.1,0.3,0.4,0.5,0.4,0.8c0.1,3.6,0.2,7.2,0.2,10.8c0,4.7,0.1,9.4-0.1,14c-0.1,5.2-0.4,10.3-0.6,15.4
				c0,0.4,0,0.8,0,1.2C140.1,121.8,139.8,121.8,139.5,121.8z"/>
			<path d="M143.7,121.8c0.2-2.4,0.4-4.9,0.5-7.3c0.1,0,0.1,0,0.2,0c0.2,2.4,0.4,4.9,0.6,7.3C144.6,121.8,144.2,121.8,143.7,121.8z"
				/>
			<path class="st0" d="M163.1,102.9c-0.2-0.4-0.2-0.5-0.2-0.6c-0.1-3.9-0.1-7.8-0.2-11.7c0-1,0.1-1.9,0-2.9c-0.1-0.3-0.6-0.6-1-0.9
				c-0.1,0.1-0.2,0.2-0.3,0.2c-0.1-0.4-0.2-0.8-0.2-1.1c0.7-0.2,1.3-0.3,2.1-0.5c0.4,5.3,0.4,10.8,0.5,16.2
				C163.7,102,163.4,102.4,163.1,102.9z"/>
			<path class="st0" d="M148.1,110.4c0.7,0.1,1.2,0.2,1.7,0.3c0,2.3,0,4.5,0,6.8c-0.1,0-0.2,0-0.2,0c-0.1-0.3-0.1-0.7-0.2-1
				c-0.1,0-0.1,0-0.2,0c-0.1,0.5-0.1,1-0.3,1.5c-0.1,0.3-0.4,0.6-0.7,0.9c-0.2-0.3-0.4-0.6-0.4-1C147.9,115.4,148,112.9,148.1,110.4
				z"/>
			<path class="st0" d="M169.2,88.1c0.7,0.1,1.7,1.4,1.7,2.2c-0.1,1.3-0.1,2.6-0.1,3.9c0,0.9-0.2,1.7-1.6,1.6
				C169.2,93.2,169.2,90.6,169.2,88.1z"/>
			<path class="st0" d="M138.5,76.9c0.4,1.6,1.2,3,0.9,4.7c-0.1,0.7,0.4,1.4,0.4,2.1c-0.2,2.3-0.5,4.6-0.7,7c0,0.2-0.2,0.4-0.5,0.5
				C138.5,86.4,138.5,81.6,138.5,76.9z"/>
			<path class="st0" d="M165.5,97.8c0.1-1.6,0.3-3.2,0.3-4.9c0-1.6-0.1-3.2-0.2-4.7c0.1,0,0.2,0,0.3,0c0,2.1,0.1,4.2,0.1,6.3
				c0,1.2-0.1,2.4-0.2,3.5c-0.1,0.7-0.5,1.4-0.7,2c-0.1,0-0.2-0.1-0.4-0.1c0-3.9,0-7.8,0-11.7c0.1,0,0.1,0,0.2,0
				c0.1,1,0.2,2.1,0.2,3.1c0,1.1-0.1,2.1-0.1,3.2s0.1,2.1,0.2,3.2C165.4,97.8,165.5,97.8,165.5,97.8z"/>
			<path class="st0" d="M157.5,90.3c0-1.5,0-2.9,0-4.4c0-0.3,0.3-0.6,0.5-0.9c0.3,0.3,0.9,0.7,0.9,1c0.1,2.3,0.2,4.6,0.2,7
				c0,0.7-0.1,1.2-1.3,1.4c0.3-2.6,0.6-5.2,0.9-7.7c-0.1,0-0.3,0-0.4-0.1C157.5,87.7,158.1,89.1,157.5,90.3z"/>
			<path class="st0" d="M167.5,98.3c0-3.7,0-7.5,0-11.3c0.2,0.4,0.5,0.7,0.5,0.9c0.1,3.3,0.1,6.5,0.2,9.8c0,0.2-0.1,0.4-0.2,0.6
				C167.8,98.3,167.7,98.3,167.5,98.3z"/>
			<path class="st0" d="M138.2,100c0-1.9,0-3.8,0-5.7c0.1-0.1,0.2-0.1,0.3-0.2c0.1,0.3,0.4,0.6,0.4,0.8c-0.1,1.7-0.3,3.3-0.4,5
				C138.4,100,138.3,100,138.2,100z"/>
			<path class="st0" d="M155.6,107.7c-0.1-1-0.3-2-0.3-3c0-0.2,0.3-0.5,0.4-0.5c0.2,0,0.6,0.3,0.6,0.4c-0.1,0.5,0.6,1.2-0.3,1.6
				c-0.2,0.1,0,0.9,0,1.3C155.9,107.6,155.8,107.6,155.6,107.7z"/>
			<path class="st0" d="M153,99.9c-0.1,1.5-0.2,3-0.2,4.6c0,0,0,0-0.1,0c0-1.5,0-3.1,0-4.6C152.8,99.9,152.9,99.9,153,99.9z"/>
			<path class="st0" d="M141.2,71.1c0.4,0.4,1.2,0.7,0.8,1.5c-0.4,0-0.7,0-1.4,0C140.9,72.1,141.1,71.6,141.2,71.1z"/>
			<path class="st0" d="M158.2,106.7c0-0.8,0-1.5,0-2.3c0.1,0,0.1,0,0.2,0c0,0.8,0,1.5,0,2.3C158.3,106.7,158.3,106.7,158.2,106.7z"
				/>
			<path class="st0" d="M138.5,107.4c0-0.9-0.1-1.8-0.1-2.7c0.1,0,0.1,0,0.2,0c0.1,0.9,0.2,1.8,0.3,2.7
				C138.7,107.4,138.6,107.4,138.5,107.4z"/>
			<path d="M168.1,64.3c-0.2-0.5-0.4-1-0.5-1.6c0-0.3,0.3-0.7,0.5-1c0.1,0,0.2,0,0.3,0.1c0-0.8,0-1.7,0-2.8c1.2,0.7,2.2,1.3,3.5,2
				c-0.1-1.1,0-1.8-0.2-2.4c-0.1-0.3-0.4-0.7-0.7-0.9c-0.4-0.3-0.9-0.4-1.3-0.5c-0.8-0.3-1.2-0.8-1.1-1.7c0.1-0.8-0.3-1.2-0.9-1.5
				c-1.3-0.6-2.6-1.3-3.9-2c0,0.9,0,1.8,0,2.6c-2.5-0.5-2.8-0.8-2.6-2.8c0.3,0,0.6-0.1,1-0.1c0-0.3,0-0.6,0-0.9c0-1.9,0-1.9-1.8-2.5
				c-1.6-0.6-1.7-0.7-1.3-2.7c1.5,0.5,3.1,1,4.6,1.5c0,0.1,0,0.1,0,0.2c-0.3,0-0.5,0-0.8,0.1c0,0.1-0.1,0.2-0.1,0.2
				c0,2.2,0,2.2,2.1,2.7c0.2,0.1,0.4,0.1,0.6,0.1c1.8,0.4,1.7,0.4,2,2.2c0,0.3,0.3,0.6,0.6,0.8c0.4,0.3,0.9,0.4,1.4,0.6
				c0.5,0.2,0.9,0.4,1.6,0.7c-0.7,2.7,1.3,3.1,3.2,3.5c0,0.4,0.1,0.7,0.1,1c-0.3,1.3,0.5,1.9,1.6,2.2c2,0.7,2,0.7,1.6,3.2
				c-0.4-0.1-0.7-0.3-1.3-0.5c0,0.8-0.1,1.6,0.2,2.1c0.3,0.6,1.1,0.9,1.6,1.4c-1.1-0.3-2.2-0.5-3.3-0.7c0,0,0.1-0.1,0.5-0.2
				c-0.4-0.2-0.7-0.3-1.1-0.5c0.1,1,0.2,1.8,0.2,2.6c0,0-0.2,0-0.5,0c0,0.1,0,0.1,0,0.2c1,0.3,2,0.6,3,0.9c0.3,0.1,0.7,0.2,0.9,0.4
				c0.3,0.4,0.5,0.9,0.5,1.3c0,0.3-0.7,0.5-1.2,0.8c0.5,0.3,1.1,0.6,1.7,0.8c0.5,0.2,1.2,0.3,1.7,0.6c0.3,0.2,0.3,0.6,0.5,1
				c-0.3,0.1-0.6,0.4-0.9,0.3c-1.1-0.1-2.2-0.2-3.3-0.5c-0.3-0.1-0.6-0.6-0.7-1c-0.2-0.6-0.2-1.2-0.4-1.8c0.1,0,0.3,0,0.5,0
				c0,0,0-0.1,0.1-0.1c-0.4-0.2-0.8-0.4-1.3-0.5c-1-0.1-1.8-1.1-2.9-0.7c-0.1,0-0.6-0.5-0.6-0.6c0.3-1.4-0.7-2-1.5-2.7
				c0.8,0.3,1.5,0.6,2.3,0.9c0.3-2.2-0.1-2.9-1.6-3.5c-0.3-0.1-1,0.1-1,0.2c0.1,0.8,0.2,1.7,0.3,2.5c-2-0.7-2-0.8-1.9-2.9
				C168.1,64.4,168.1,64.4,168.1,64.3z M169.8,61.9c-0.1,0.2-0.2,0.3-0.2,0.4c0,0.1,0.1,0.3,0.2,0.3c1.7,0.3,3.2,1.7,5.3,1
				C173.3,63,171.6,62.5,169.8,61.9z"/>
			<path d="M168.1,64.3c0,0.1,0,0.1,0,0.2c-0.6-0.2-1.3-0.4-1.8-0.7c-0.7-0.4-1.2-0.9-1.1-1.8c0.1-0.7-0.2-1.1-0.9-1.4
				c-1.3-0.6-2.5-1.2-3.7-1.8c-0.8,1.8-0.5,2.6,1.5,3.3c0.7,0.2,1,0.6,0.9,1.2c-0.2,1.2,0.3,1.8,1.4,2.2c0.4,0.1,0.7,0.4,1.1,0.6
				l0,0c-1.1-0.3-2.2-0.6-3.2-1c-0.3-0.1-0.5-0.8-0.4-1.2c0.3-1.1-0.2-1.6-1.2-1.9c-1.8-0.5-1.8-0.3-1.8-2.4c0-0.3-0.3-0.8-0.7-0.9
				c-1.8-0.8-1.8-0.9-1.4-3.1c0.5,0.1,1,0.3,1.6,0.4c0.1-0.1,0.1-0.2,0.1-0.3c0.1-1.9,0.1-1.9-1.8-2.7c-0.5-0.2-0.9-0.4-1.3-0.8
				c1.3,0.4,2.7,0.7,4,1.1c0.3,0.1,0.5,0.7,0.5,1.1c-0.1,1.2,0.4,1.8,1.5,2c0.3,0,0.5,0.2,0.7,0.2c0.7,0.1,1.1,0.5,0.9,1.2
				c-0.3,1.4,0.3,2.1,1.6,2.5c0.3,0.1,0.6,0.3,0.9,0.4c1.3,0.4,2.4,1,2.1,2.7C167.4,63.5,167.9,63.9,168.1,64.3z"/>
			<path d="M149.5,68.5c-0.6-0.5-1.1-0.9-1.7-1.3c0.1,0,0.4-0.2,0.8-0.3c0-1.3-0.8-2.7,0.3-4.1c-0.1-0.1-0.2-0.4-0.4-0.6
				c1-0.9,1.9,0,2.8,0.2c0.4-0.9,0-1.5-1-1.6s-1.2-0.8-1.3-1.9c1.4,0.4,2.7,0.7,3.9,1.1v-0.1c-0.2-0.1-0.3-0.3-0.5-0.3
				c-1.4-0.3-2.1-1.1-2-2.6c0-0.4-0.5-0.8-0.9-1.3c0.5,0.1,0.9,0.3,1.2,0.4c1,0.2,1.5,0.8,1.3,1.8c-0.2,1.1,0.3,1.5,1.3,1.7
				c2,0.5,2,0.6,1.6,3.1c-0.5-0.3-0.8-0.5-1.2-0.7c-0.6-0.3-1.3-0.6-1.7-0.8c0,0.8,0.1,1.7,0.2,2.9c-0.7-0.3-1.1-0.5-1.6-0.8
				c-0.5,1.7-0.3,2.2,1,3.2c0.2,0.2,0.4,0.6,0.4,0.9c0.1,0.7,0,1.4,0,2.1c-0.2,0-0.3,0.1-0.5,0.1c-0.1-0.4-0.3-0.7-0.4-1.1
				c-0.1-0.5,0-0.9-0.1-1.4C151.3,68.1,150.3,68.2,149.5,68.5L149.5,68.5z"/>
			<path d="M167.6,45.8c0.1,0,0.3-0.1,0.4-0.1c0-0.1,0-0.2,0.1-0.2c-1.5-0.5-2.9-1-4.4-1.5c-1.1-0.3-2.3-0.6-3.4-0.9
				c-0.7-0.2-1-0.6-0.9-1.3c0.1-1,0-1.8-1.2-2.2c0.1-0.1,0.1-0.2,0.2-0.2c1.9,0.7,3.8,1.4,5.7,2.2c0,0.1,0,0.1-0.1,0.2
				c-0.8-0.2-1.5-0.4-2.4-0.6c0,0.4-0.1,0.7-0.1,0.9c1.6-0.6,2.9,0.6,4.3,0.9c0.8,0.2,1.5,0.5,2.3,0.8c0.2,0.1,0.5,0,0.7,0
				c1.2-0.2,1.6,0.2,1.6,1.3c0,0.5,0,1.1,0,1.9C169.5,46.5,168.6,46.2,167.6,45.8L167.6,45.8z"/>
			<path d="M179.8,78c-0.7-0.2-1.4-0.4-2.1-0.6c-0.1,0.1-0.2,0.1-0.2,0.2c0.3,0.3,0.5,0.6,0.8,0.8c0.5,0.3,1.1,0.4,1.6,0.7
				c0.2,0.1,0.3,0.6,0.4,0.9c-0.3,0.1-0.6,0.2-0.9,0.2c-0.6-0.1-1.1-0.4-1.7-0.6c-0.4,0.8-0.1,1.1,0.7,1.2c0.5,0.1,1.1,0.2,1.5,0.6
				c0.3,0.3,0.4,0.9,0.6,1.4c-0.4,0.1-0.8,0.3-1.2,0.3c-0.7-0.1-1.3-0.4-2-0.6c-0.8-0.3-1.1-1.2-0.6-1.9c0.5-0.8,0.2-3-0.6-3.4
				c-0.6-0.3-1.3-0.6-1.9-0.7c-0.6-0.2-0.9-0.5-0.9-1.2s0.3-0.9,0.9-0.7c0.9,0.3,1.7,0.6,2.6,0.8C178.3,75.6,179.6,76.1,179.8,78z"
				/>
			<path d="M170.6,78.1c-1.1-0.6-2.2-1.6-3.5-1.8c-1.4-0.3-2.3-0.9-3-2.1c1-0.3,3.6,0.6,4.2,1.4c0.1-1,0.7-0.9,1.3-0.7
				c0.8,0.4,1.6,0.9,2.5,1.3c1.3,0.6,2.6,1,3.9,1.5c0.6,0.2,1,0.6,0.7,1.2c-0.1,0.2-0.8,0.2-1.2,0.1c-1.3-0.4-2.5-0.9-3.6-1.3
				C171.4,77.9,171,78,170.6,78.1L170.6,78.1z"/>
			<path d="M157.6,47.9c-1.2-0.1-1.6-0.6-1.6-1.7c0.1-1.2,0-1.2-0.8-1.7c0.1-0.4,0.1-0.9,0.2-1.1c-0.5-0.1-0.9-0.1-1.2-0.2
				c-0.9-0.3-1.7-0.6-2.6-0.8c-0.9-0.2-1.7-0.3-1.4-1.5c0.1-0.4-0.1-0.8-0.1-1.1c1.3,0.3,2.5,0.6,3.7,1c0.6,0.2,1,0.6,1.6,1
				c0-0.1,0.1-0.4,0.1-0.8c1.2,0.2,1.9,0.6,1.9,2C157.3,44.6,157.5,46.3,157.6,47.9z"/>
			<path d="M166.2,71.4c-0.2-0.3-0.4-0.5-0.6-0.9c0.5,0,0.7,0.1,1,0.1c0-0.1,0.1-0.1,0.1-0.2c-0.3-0.2-0.7-0.6-0.9-0.5
				c-1,0.5-1.3-0.2-1.8-0.9c0.7,0,1.4,0.1,1.9,0.1c-0.1-1-0.3-2.1-0.4-3.1l0,0c0.4,0,0.7,0.1,1.1,0c0.9-0.2,1.2,0.2,1.2,1.1
				c0,1.6,0.8,2.8,2.5,3c1.1,0.2,1.1,0.7,1.1,1.5c0,0.5,0,0.9,0,1.8c-1-0.5-1.8-1-2.7-1.4C167.8,71.6,166.9,71.6,166.2,71.4
				L166.2,71.4z"/>
			<path d="M172.2,44.5c0.6,0.1,1.2,0.2,1.8,0.4c0.4-2,0.7-2.1,2.4-1c0.5,0.3,1.2,0.5,1.7,0.6c1,0.3,1.2,1,1,2.1
				c-0.5-0.2-1-0.5-1.4-0.6c-0.7-0.2-1.2-0.1-1.1,0.8c0,0.5,0,1.1,0,1.7c0,0.2-0.2,0.4-0.3,0.6c-0.2-0.2-0.4-0.3-0.7-0.5
				c0,0-0.1-0.1-0.1-0.2c0.4-2-1.2-2.4-2.5-3c-0.3-0.2-0.6-0.4-0.9-0.5C172.1,44.6,172.1,44.6,172.2,44.5z"/>
			<path d="M152.1,72.7c1.2,0.2,2.3,0.5,3.5,0.7c0.6,0.1,1.2,0.4,1.8,0.5c1.3,0.1,1.6,0.9,1.4,1.9c-0.1,0.3-0.3,0.6-0.5,0.8
				c0-0.3-0.1-0.5-0.1-0.7c-1.6-0.3-3.3-0.7-4.9-1C151.9,74.6,151.7,74.4,152.1,72.7z"/>
			<path d="M159.2,74.8c1.7,0.5,3.2,0.9,4.8,1.4c0.4,0.1,0.8,0.5,1,0.9c0.1,0.2,0.1,0.7,0,0.9c-0.1,0.2-0.6,0.3-0.9,0.2
				c-1.5-0.4-2.9-0.9-4.4-1.4C158.7,76.4,159,75.6,159.2,74.8z"/>
			<path d="M148.9,74.4c1.7,0.5,3.4,0.8,5,1.4c0.4,0.1,0.9,1,0.8,1.4c-0.1,0.8-0.9,0.4-1.3,0.3c-1.2-0.3-2.4-0.7-3.5-1.1
				C148.7,76,148.6,75.8,148.9,74.4z"/>
			<path d="M156.7,36.1c-0.7-0.5-1.4-1.1-2.3-1.8c-0.1-0.6,0.4-0.8,1.1-0.5c1.7,0.7,3.4,1.5,5.2,2.2c0.7,0.3,0.7,0.7,0.5,1.5
				c-1.2-0.4-2.3-0.8-3.5-1.2C157.4,36.2,157,36.2,156.7,36.1L156.7,36.1z"/>
			<path d="M176.8,56.8c0.8,0.3,0.7,1,0.7,1.7c0.1,0.5,0.1,1,0.2,1.4c-1.6-0.2-1.8-0.5-1.9-2.3c0-0.3-0.5-0.7-0.8-0.8
				c-1.2-0.4-1.8-1-1.6-2.3c0.1-0.4-0.3-0.9-0.5-1.5c0.5,0.2,1.2,0.2,1.7,0.5c0.3,0.2,0.4,0.7,0.4,1.1
				C175.1,56.3,175.1,56.3,176.8,56.8L176.8,56.8z"/>
			<path d="M152.4,31c1.1,0.6,2.2,0.7,2.9,1.8c-0.5,0-0.8,0.1-1.2,0.1c-0.1,0.7-0.1,1.4-0.2,2.3c-1.5-0.8-2.9-1.6-4.5-2.4
				c-0.1,0.8-0.1,1.5-0.2,2.2c-0.1,0-0.2,0-0.3,0c0-0.9,0-1.7,0-2.8c1.2,0.4,2.2,0.8,3.3,1.2C152.3,32.6,152.3,32,152.4,31z"/>
			<path d="M141.6,67.6c0.4-0.1,0.8-0.4,1.1-0.4c1.8,0.4,3.6,0.6,5,2c0.2,0.2,0.3,0.5,0.2,0.6c-0.1,0.2-0.4,0.4-0.6,0.4
				c-0.4,0-0.8-0.1-1.1-0.3c-1.2-0.8-3-0.6-3.9-2c-0.1-0.1-0.4,0-0.7,0C141.7,67.9,141.7,67.7,141.6,67.6z"/>
			<path d="M170.6,78.1c0.8,0.4,1.6,0.7,2.5,1.1c0.7,0.3,1.5,0.5,2.2,0.8c0.8,0.3,1,0.8,0.5,1.6c-1.3-0.3-2.7-0.7-4-1.1
				C170.4,80,170.2,79.4,170.6,78.1L170.6,78.1z"/>
			<path d="M176.8,56.8c-0.4-0.3-0.9-0.6-1.2-1c-0.2-0.3-0.1-0.7-0.2-1.4c1.6,0.7,3.1,1.1,4.3,1.9c0.5,0.4,0.6,1.5,0.7,2.4
				C179.1,58,178.4,56.5,176.8,56.8L176.8,56.8z"/>
			<path d="M165.6,40.4c-0.1,0.7-0.1,1.2-0.2,1.7c-0.1,0-0.1,0-0.2,0c0-0.8,0-1.6,0-2.6c1.4,0.4,2.7,0.7,4.3,1.1
				c0-0.7,0-1.3,0.1-1.9c0-0.2,0.3-0.3,0.4-0.5c0,0.2,0.1,0.3,0.1,0.5c0,0.5-0.1,1,0,1.4s0.4,0.7,0.7,1.1c0.1-0.1,0.2-0.1,0.3-0.2
				c0-0.5,0-1,0-1.5c0.5,0.1,0.9,0.2,1.5,0.3c-0.3,0.5-0.5,0.9-0.8,1.4c0.4,0.3,0.9,0.5,1.3,0.7c0,0.1-0.1,0.2-0.1,0.3
				C170.6,41.8,168.2,41.1,165.6,40.4z"/>
			<path d="M148.7,37.6c1.2,0.5,2.2,0.9,3.3,1.4c0.1-0.8,0.2-1.5,0.4-2.3c0.4,0.2,0.7,0.3,0.8,0.4c-0.1,1-0.2,1.8-0.3,2.8
				c-1.1-0.3-2.1-0.6-3.2-1c-0.2,1.8-0.3,3.5-0.5,5.2c0,0,0,0-0.1,0C149,42,148.8,39.9,148.7,37.6z"/>
			<path d="M164,31.3c-0.6-0.1-1.1-0.2-1.8-0.4c-0.1,0.7-0.1,1.3-0.2,2c-0.4-0.4-0.8-0.8-1.2-0.9c-1.2-0.2-1.4-0.9-1.3-1.9
				c0-0.3,0.1-0.6,0.1-1.1c1.6,0.7,3,1.3,4.5,2C164.1,31.1,164.1,31.2,164,31.3z"/>
			<path d="M165.8,76.9c1.2,0.4,2.3,0.7,3.3,1.2c0.3,0.1,0.4,0.7,0.5,1.1c-0.4,0.1-0.8,0.3-1.2,0.3c-0.6-0.1-1.1-0.3-1.7-0.5
				C165.8,78.7,165.6,78,165.8,76.9z"/>
			<path d="M176.2,33.3c-3.6-1.6-7.3-2.7-10.8-4.4c0.1-0.1,0.1-0.3,0.2-0.4c3.6,1.4,7.2,2.9,10.8,4.3
				C176.3,33,176.3,33.1,176.2,33.3z"/>
			<path d="M163.7,80.3c0.3-1,0.7-1.1,1.5-0.6c0.3,0.2,0.6,0.2,1,0.3c0.5,0.1,1,0.1,1.4,0.3c0.3,0.2,0.5,0.8,0.7,1.2
				c-0.4,0.1-0.9,0.3-1.2,0.2c-0.8-0.2-1.5-0.5-2.3-0.7C164.4,80.7,164,80.5,163.7,80.3z"/>
			<path d="M177.3,51.6c-1-0.4-1.9-0.8-2.9-1.3c0,0-0.1,0.1-0.4,0.5c0-1,0-1.7,0-2.4c0.9,1.4,2.4,1,3.5,1.6
				C177.4,50.5,177.4,50.9,177.3,51.6z"/>
			<path d="M156.5,27.7c0.4,0.5,0.8,1,1.2,1.5c0.1,0.1,0.4-0.1,0.5-0.1c0.3,0.1,0.7,0.3,0.8,0.6c0.1,0.2,0,0.7-0.1,0.8
				c-0.3,0.1-0.6,0-0.9-0.1c-0.9-0.4-1.9-0.8-2.7-1.2c0.2-0.4,0.3-0.8,0.5-1.1c0.1-0.2,0.3-0.3,0.4-0.4
				C156.3,27.6,156.4,27.7,156.5,27.7z"/>
			<path d="M156.7,36.1c1.4,0.7,0.5,1.9,0.8,3c-1.8-0.2-2-0.4-2-1.9c0-0.5-0.1-0.9-0.2-1.4C155.7,35.9,156.2,36,156.7,36.1
				L156.7,36.1z"/>
			<path d="M146.4,56.7c-0.3,0.2-0.7,0.4-1.2,0.7c-0.4-1-0.7-2-0.3-3c0.1-0.3,0.6-0.5,1-0.6c0.1,0,0.5,0.5,0.5,0.8
				C146.5,55.3,146.4,56,146.4,56.7z"/>
			<path d="M169.7,33.5c0.7,0.2,1.3,0.5,1.7,0.6c0.6-0.6,1.1-1.1,1.6-1.5c0.1-0.1,0.7,0.1,0.7,0.3c0.1,0.6,0,1.3-0.1,1.9
				c0,0.1-0.5,0.1-0.8,0.1c-1.1-0.3-2.2-0.7-3.4-1C169.6,33.8,169.7,33.6,169.7,33.5z"/>
			<path d="M156.5,27.7c-0.1,0-0.2,0-0.3-0.1c-0.3-0.3-0.6-0.7-0.9-1c0.1-0.1,0.2-0.2,0.2-0.3c0.8-0.1,1.6-0.1,2.4-0.2l0,0
				c0,0.6,0,1.2,0,2C157.4,28,157,27.8,156.5,27.7z"/>
			<path d="M151.6,32.7c-1.5-0.4-2-0.9-1.7-1.5c0.1-0.2,0.6-0.4,0.9-0.3C151.7,31.1,152,31.8,151.6,32.7z"/>
			<path d="M146.6,20.6c2.1,0.8,4.3,1.7,6.7,2.6c-0.5,0.1-0.9,0.4-1.1,0.3c-1.7-0.8-3.5-1.6-5.2-2.4c-0.2-0.1-0.3-0.2-0.5-0.3
				C146.5,20.8,146.5,20.7,146.6,20.6z"/>
			<path d="M158.8,25.7c1.8,0.1,4.8,1.8,4.7,2.7C162,27.5,160.4,26.6,158.8,25.7L158.8,25.7z"/>
			<path d="M175.9,67.6c0.8,0.5,1.5,0.8,2.2,1.3c0.2,0.1,0.2,0.5,0.3,0.8C176.2,69.2,175.9,69,175.9,67.6z"/>
			<path d="M149.5,68.5c0,0.7,0,1.3,0,2c0,0.3-0.4,0.5-0.6,0.7c-0.2-0.3-0.5-0.5-0.6-0.8c-0.1-0.6,0-1.2,0-2
				C148.8,68.4,149.2,68.5,149.5,68.5L149.5,68.5z"/>
			<path d="M180.8,72.4c-0.2,0.1-0.5,0.4-0.7,0.3c-0.5-0.3-1-0.6-1.5-1c0.2-0.1,0.4-0.4,0.6-0.4c0.5,0.2,1.1,0.5,1.6,0.7
				C180.8,72.2,180.8,72.3,180.8,72.4z"/>
			<path d="M148.7,57.8c-1.6,0.2-0.5,1.6-1.2,2.3c-0.5-0.2-1-0.4-1.5-0.6c0-0.1,0-0.1,0-0.2c0.4,0,0.7,0.1,1.2,0.1
				c0-0.7,0.1-1.4,0.2-2.3C147.9,57.4,148.3,57.6,148.7,57.8z"/>
			<path d="M164.5,57.4c0.3,0.1,0.6,0.1,1,0.2c0-0.7,0.1-1.4,0.1-2c1,0.7,0.6,1.6,0.5,2.7c-0.6-0.2-1.1-0.4-1.7-0.6
				C164.4,57.5,164.5,57.5,164.5,57.4z"/>
			<path d="M158.8,64c0.8,0.2,0.9,0.9,0.5,2.5C158.5,66.2,158.4,65.7,158.8,64z"/>
			<path d="M152.9,24.2c0.8,0.4,1.5,0.8,2.5,1.3c-0.8,0-1.2-0.1-1.6,0C153,25.6,152.8,25.4,152.9,24.2z"/>
			<path d="M145.2,67.2c-0.7-0.8-0.5-1.7-0.2-2.6C145.8,65.4,145.3,66.3,145.2,67.2z"/>
			<path d="M155.1,73c-0.9-0.8,0.7-2.5-1.2-2.8C155.5,70,155.9,70.9,155.1,73z"/>
			<path d="M155.2,67.7c-1.2-0.7,0-2-0.9-2.7C155.6,65.2,155.8,66,155.2,67.7z"/>
			<path d="M151.7,50.9c0.2,0.3,0.5,0.6,0.5,0.8c0,0.6-0.1,1.2-0.2,1.8c-0.2-0.2-0.6-0.3-0.6-0.5c-0.1-0.7,0-1.4,0-2
				C151.5,51,151.6,51,151.7,50.9z"/>
			<path d="M148.4,61.6c-0.3,0.3-0.6,0.6-0.7,0.6c-0.3-0.2-0.6-0.4-0.7-0.7c0-0.1,0.4-0.5,0.6-0.6C147.8,61,148,61.3,148.4,61.6z"/>
			<path d="M162.2,70.2c0-0.8,0-1.7,0-2.5c0.1,0,0.2,0,0.3,0c0.4,0.8,0.3,1.6,0.1,2.5C162.5,70.2,162.4,70.2,162.2,70.2z"/>
			<path d="M149,29.6c0-0.8,0-1.7,0-2.5c0.1,0,0.2,0,0.3,0c0,0.8,0,1.7,0,2.5C149.2,29.6,149.1,29.6,149,29.6z"/>
			<path d="M154.9,29.5c1.2,0.5,2.3,1,3.5,1.4c0,0.1-0.1,0.2-0.1,0.2C157.1,30.7,155.7,30.9,154.9,29.5z"/>
			<path d="M159.7,33.7c0.4,0.1,0.9,0.2,1.3,0.3c-0.1,0.2-0.3,0.7-0.3,0.7c-0.4-0.1-0.8-0.3-1.2-0.5C159.6,34,159.7,33.9,159.7,33.7
				z"/>
			<path d="M178.1,51.8c0.9-1.1,1.3-0.5,1.7,0.4C179.2,52.1,178.7,52,178.1,51.8z"/>
			<path d="M144.8,51.2c0-0.8,0-1.6,0-2.5c0.1,0,0.2,0,0.3,0c0,0.8,0,1.6,0,2.4C145,51.2,144.9,51.2,144.8,51.2z"/>
			<path d="M178.9,68.4c1.4,0.5,0.3,1.3,0.7,2c-0.1,0-0.3,0-0.4,0.1C179,69.8,179,69.1,178.9,68.4z"/>
			<path d="M167.7,45.8c-0.2,0.5-0.3,0.9-0.4,1.4c-0.1,0.4-0.1,0.8-0.2,1.2c-0.1,0-0.2,0-0.3,0c0-0.9,0-1.8,0-2.9
				C167.1,45.6,167.4,45.7,167.7,45.8C167.6,45.8,167.7,45.8,167.7,45.8z"/>
			<path d="M166.1,71.4c-0.1,0.8-0.2,1.6-0.3,2.4c-0.2,0-0.3,0-0.5,0c0-0.7,0-1.4,0-2.2C165.4,71.5,165.9,71.5,166.1,71.4
				C166.2,71.4,166.1,71.4,166.1,71.4z"/>
			<path d="M158,26.2c-0.4-0.5-0.8-1-1.1-1.4c0-0.1,0-0.1,0.1-0.2c0.6,0.4,1.3,0.7,1.9,1.1l0,0C158.5,25.8,158.2,26,158,26.2
				C157.9,26.2,158,26.2,158,26.2z"/>
			<path class="st0" d="M169.9,67.4c-0.1-0.8-0.3-1.7-0.3-2.5c0,0,0.7-0.3,1-0.2c1.6,0.6,1.9,1.4,1.6,3.5
				C171.4,68,170.7,67.7,169.9,67.4L169.9,67.4z"/>
			<path class="st0" d="M169.8,61.9c1.8,0.6,3.5,1.1,5.4,1.7c-2.1,0.7-3.6-0.6-5.3-1c-0.1,0-0.2-0.2-0.2-0.3
				C169.6,62.2,169.7,62.1,169.8,61.9z"/>
		</g>
	</g>
	<path class="st1" d="M129.8,26.3c0,0-0.4-0.2-0.2-0.5s0.4-0.6,0.5-0.8s0.3-0.4,0.3-0.4l0.2-0.6l0.2-0.3l0.1-0.2
		c0,0-0.3-0.8-0.3-0.9c0,0-0.8-1-1.6-1.6c0,0-1.4-0.8-1.4-2.9c0,0-0.3-1-0.1-2.2s0.4-2.5,0.4-2.5l0.3,0.1c0,0-1-0.8-1.2-1.3
		s-0.3-1.2-0.4-1.8s0.1-1.4,0.2-1.6c0.1-0.3,0.3-0.7,0.4-0.7s0.6-2.3,2.2-3.2l1.2-0.5c0,0,0.8-1.1,1.3-1.7s0.4-0.9,0.4-1
		s0.4-2.4,2.7-1.5c0.9,0.4,1.4,1.5,1.1,2.1s-0.2,1.5-0.2,1.5s0,0.3-0.3,0.2c0,0-0.2,0.1-0.2,0.2s-0.3,0.2-0.3,0.2H135
		c0,0,0.1,0.2,0,0.3c-0.1,0.1-0.3,0.1-0.3,0.1s0.1,0.4,0,0.8s-0.6,0-0.6,0s-0.3-0.1-0.2,0.1c0.2,0.2,1.3,1.9,1.2,2.2
		c0.3,0,0.7-0.1,0.7-0.1s0.5-0.1,0.6-0.1l0.1-0.2l-0.1-0.2c0,0,0.1-0.8,0.2-0.8c0.1-0.1,0.5-0.4,0.8-0.1l0.1,0.1c0,0,0.3-0.2,0.6,0
		s0.7,0.9,0.7,0.9l-0.1,0.4l1.8,0.8l4.6,2.1l0.1,0.5l0.4,0.2l0.2,0.1v-0.2l0.4-0.2l0.1-0.3l0.5,0.1l-0.5,1l1.3,0.6l0.2-0.1l1,0.6
		c0,0,0.2,0.5-0.4,0.7l-0.9-0.4l-0.2-0.3l-1.1-0.4l-0.1,0.2l0.1,0.2l0.2,0.2c0,0,0,0.5-0.2,0.6s-1.3-0.4-1.3-0.4l-1.4-0.3l-2,0.1
		l-0.1-0.2l-0.6-0.1v0.2l-0.7-0.2c0,0-0.3,1.1-0.4,1.1l-0.6,0.3c0,0-2.7-0.9-2.8-0.9l-1.3,0.2l-1.1-0.3l-0.2-0.2l-0.4,0.3l-0.1,1.2
		h0.4l-0.1,2v1.1l1.1,1c0,0,1,1.5,1.2,3.5c0.1,0,0,0.2,0,0.2l0.5-0.1c0,0,0.6,0.5,0.4,1.9l-0.9,1l0.9,0.2c0,0,0.6,0.7,0.4,1.5
		c-0.1,0.9-1,1.4-1,1.4"/>
	<path class="st1" d="M229.9,72.4c-0.4-0.6-0.8-1.4-1.1-1.5c0,0,1.6-2.9,1.1-5.4c0,0-2.8-3.6-5.4-1.6c-0.1,0.3-0.3,0.8-0.3,0.8
		s-0.4-0.6-0.5-0.9c-0.1-0.3-1-0.4-1-0.4V63c0,0,1.4-3-1.1-3.8c-1.2-0.3-3-0.5-3.8,1.8c0,0.8,0.1,0.8,0.1,0.8l0.1,0.3
		c0,0-0.2,0.6,0.2,1l-0.2,0.4c0,0-0.2,0.1-0.1,0.5c0.1,0.4,0.5,0.9,0.5,0.9v0.2l-0.9-0.2c0,0,0-0.8-1.3-1.4l-0.1,0.3
		c0,0-0.6-1.2-3.3-1.8c-1.1-0.3-14.2-4.3-14.2-4.3s-0.5,2,0.4,2.6c0.6,0.1,5.4,1,5.4,1l0.1,0.5h-0.6c0,0-0.1,0.7,0.4,0.8
		s1.5,0.3,1.5,0.3s-0.3,0.3,0.1,0.5s0.9,0.2,0.9,0.2s1.7,1.2,3.3,1.8c0,0.2-0.1,0.3-0.1,0.3l0.8,0.5c0,0,2.8,3.6,3.7,4.1
		c0.7,0.3,1.9-0.2,1.9-0.2s2.4-0.2,2.7-0.1s0.8,3.6,0.3,4.3c-0.2,0-1.2-1-2.5-0.7c-0.4,0.1-0.3,0.3-0.3,0.3s-1.3-0.5-2.4,0.1
		c-0.9,0.4-2.1,1-1.9,2.3c0.1,0.3,0,0.8,0,0.8s-0.9-0.7-0.9-0.9c0-0.2,0-0.4,0-0.4s-1,0.3-0.9,0.9s3.2,3.8,3.5,5.3
		c0.1,0,0.2,0.3,0.2,0.3l-0.3,0.7l-0.5,0.1l-0.5,0.8l0.2,0.3l-0.7,0.9c0,0-0.5,1,0.1,1.2c0.6,0.3,4-1.4,4.1-1.6s0.6-0.5,0.6-0.7
		s-0.8-0.8-0.9-1c-0.1-0.2-0.4-0.5-0.4-0.7s0-2.3,0-2.6c0-0.3,0.1-0.4,0.2-0.5c0.1-0.1,0.4-0.8,0.1-1.2c-0.3-0.3-0.3-0.6-0.3-0.6
		s1-0.5,1.4-0.3s1.5,0.4,1.5,0.4s0.1,0.5,0.1,0.9s-0.4,1.2-0.3,1.8c0.1,0.6-0.4,1-0.4,1s-1,1.7-0.2,3c0,0,0.4,0.9,0.7,1
		c-0.4,0.3-0.7,0.4-0.7,0.4l-0.6,0.1c0,0,0,1.8,1.2,1.9c0,0,1.4-0.1,1.5-0.3c0.2-0.2,0.8,0.3,0.8,0.3l-0.2,0.4c0,0-0.5,0.3-0.6,1.8
		s0.2,1.9,0.7,2s1.7-0.2,1.8-0.8c0.1-0.6,0.8-4,0.7-4.1s-1-0.5-1-0.5s-0.2,0-0.2-0.5s0.4-1.8,0.2-2.2c-0.2-0.5-0.5-0.7-0.5-0.7
		s1.2-2.3,1.1-2.8c-0.1-0.5,1.5-1.3,1.7-3.9c0.2-0.5,0.6-2.1,0.6-2.1l0.5,0.5l0.4-0.1V75l1.9-0.2l0.3-0.4c0,0,0.9-0.3,1.2-0.6
		C229.7,73.7,230.2,73,229.9,72.4z M215.7,67.7c0,0-1-1-1.5-1.1c-0.4-0.1-2.2-1.7-2.4-1.8c-0.2-0.1-0.2-0.8-0.8-1l0.9,0.1l0.1,0.2
		l2.1,0.3c0,0-0.1,0.1,0,0.3c0,0-0.2,0.4,0.1,0.6s0.8,0.4,0.8,0.4s0,0.4,0.3,0.5s0,0.3,0.2,0.3c0.3,0,0.6,0.1,0.6,0.1l0.3,0.8
		L215.7,67.7z"/>
	<g>
		<g>
			<g>
				<path class="st0" d="M40.8,174.1c0.1,2.3-0.2,4.4-0.8,6.2s-1.3,3.4-2.3,4.7c-1,1.4-2.1,2.6-3.4,3.6c-1.3,1-2.6,1.9-4.1,2.6
					c-1.4,0.7-2.8,1.3-4.3,1.8c-1.4,0.4-2.8,0.8-4,1.1s-2.5,0.4-3.8,0.6c-1.3,0.1-2.6,0.2-3.9,0.1c-1.3-0.1-2.6-0.3-3.9-0.7
					s-2.5-0.9-3.7-1.6c-0.7-21.7-1.4-43.4-2.1-65.1c1.1-0.6,2.3-1.2,3.5-1.6c1.3-0.4,2.5-0.8,3.9-1c1.3-0.2,2.6-0.3,3.9-0.4
					c1.3,0,2.6,0.1,3.8,0.3c1.4,0.2,2.9,0.6,4.4,1.1s2.9,1.1,4.3,2c1.4,0.8,2.7,1.8,3.8,2.9c1.2,1.1,2.2,2.5,3.2,4
					c0.9,1.5,1.6,3.2,2.2,5.1c0.5,1.9,0.8,4,0.9,6.5c0,1.6-0.1,3.1-0.4,4.5c-0.3,1.4-0.7,2.6-1.3,3.8c-0.6,1.1-1.3,2.1-2.1,2.9
					c-0.8,0.8-1.8,1.4-2.9,1.8c1.3,0.5,2.5,1.2,3.6,2.1c1.1,0.9,2,2,2.8,3.3s1.4,2.8,1.8,4.4C40.5,170.5,40.8,172.2,40.8,174.1z
					 M21.1,164.9c-0.6,0-1.1,0.2-1.7,0.4c0.1,3.6,0.1,7.2,0.2,10.8c0.3,0.1,0.6,0.1,0.9,0.2c0.3,0,0.6,0.1,0.9,0
					c0.4,0,0.9-0.2,1.4-0.4s1-0.5,1.4-1s0.8-1.1,1-1.8c0.3-0.7,0.4-1.7,0.4-2.8c0-1.2-0.2-2.1-0.5-2.8s-0.7-1.3-1.1-1.7
					s-0.9-0.6-1.4-0.8C22,164.9,21.5,164.8,21.1,164.9z M25,149.7c0-0.9-0.2-1.6-0.4-2.3c-0.3-0.6-0.6-1.2-0.9-1.6
					c-0.4-0.4-0.8-0.7-1.2-0.9c-0.4-0.2-0.8-0.3-1.1-0.3c-0.4,0-0.8,0.1-1.2,0.2c-0.4,0.2-0.7,0.4-1.1,0.6c0,3.5,0.1,7,0.1,10.5
					c0.5,0,1-0.1,1.7-0.2c0.7-0.1,1.3-0.4,1.9-0.8c0.6-0.4,1.1-1,1.6-1.8C24.8,152.2,25,151.1,25,149.7z"/>
			</g>
			<path class="st0" d="M74.1,144.8c0,2.1,0,4.4-0.1,6.8c-0.1,2.5-0.3,5.1-0.5,7.7c-0.2,2.7-0.6,5.4-1,8.1s-0.9,5.4-1.6,7.9
				c-0.6,2.5-1.4,4.9-2.3,7.1c-0.9,2.2-1.9,4.1-3,5.8s-2.4,3-3.9,3.9c-1.4,1-3,1.5-4.8,1.5c-2.1,0-3.9-0.4-5.5-1.5
				c-1.6-1-2.9-2.4-4-4.2s-2.1-3.8-2.8-6.1c-0.8-2.3-1.4-4.8-1.8-7.5c-0.5-2.6-0.8-5.3-1-8.1s-0.4-5.4-0.4-7.9
				c-0.1-3.9-0.1-7.8,0.1-11.7c0.2-3.9,0.4-7.8,0.8-11.7c4.3,0.2,8.5,0.3,12.8,0.5c-0.4,4.4-0.7,8.8-1,13.3
				c-0.3,4.4-0.3,8.9-0.2,13.4c0,0.5,0,1.2,0.1,2.1c0,0.9,0.1,2,0.2,3.1c0.1,1.2,0.2,2.3,0.4,3.6c0.2,1.2,0.4,2.3,0.6,3.3
				c0.3,1,0.6,1.8,0.9,2.5c0.3,0.6,0.7,0.9,1.2,0.9s1-0.4,1.4-1.2s0.7-1.8,1-3.1s0.5-2.8,0.7-4.5s0.4-3.4,0.5-5.3
				c0.1-1.8,0.2-3.6,0.3-5.5c0.1-1.8,0.1-3.5,0.1-5.1s0-3,0-4.2s0-2.1,0-2.7c0-2.2-0.1-4.4-0.2-6.5c-0.1-2.2-0.2-4.3-0.3-6.5
				c4.3-0.1,8.5-0.2,12.8-0.2C73.9,136.9,74,140.8,74.1,144.8z"/>
			<path class="st0" d="M90.8,132.1c-0.8,19.1-1.5,38.1-2.2,57.2c-3.8,0.4-7.6,0.7-11.4,1.1c-0.3-19-0.6-37.9-0.9-56.9
				C81.1,133,86,132.6,90.8,132.1z"/>
			<path class="st0" d="M116.9,167c-0.3,6.2-0.7,12.4-1,18.6c-7.6,1-15.1,2-22.7,3c0-9.8,0-19.5,0-29.1c0-9.7,0.1-19.4,0.1-29.1
				c4.7-0.1,9.5-0.1,14.2-0.2c-0.4,6.1-0.7,12.3-1,18.4c-0.3,6.1-0.5,12.3-0.6,18.5c0.8,0,1.7,0.1,2.5,0.1s1.7,0,2.5,0
				c1,0,2,0,3-0.1C114.9,167.1,115.9,167,116.9,167z"/>
			<path class="st0" d="M148.9,157.5c0,3.9-0.3,7.5-1,10.6c-0.6,3.1-1.6,5.9-2.7,8.4c-1.2,2.4-2.5,4.6-4.1,6.3
				c-1.6,1.8-3.3,3.2-5.2,4.4c-1.9,1.1-3.9,2-6.1,2.5c-2.1,0.6-4.3,0.8-6.6,0.9c-0.8,0-1.7,0-2.5-0.1s-1.6-0.2-2.5-0.3
				c0.1-18.8,0.2-37.6,0.4-56.3c2-1,4-1.7,6.2-2.1c2.1-0.4,4.2-0.6,6.3-0.6c2.6,0,5,0.6,7.2,1.8s4.1,2.9,5.7,5.2
				c1.6,2.3,2.8,5,3.7,8.3C148.4,149.6,148.9,153.4,148.9,157.5z M137.7,160.2c0-1.5-0.1-3-0.3-4.4s-0.6-2.6-1.1-3.7
				c-0.5-1.1-1.2-1.9-2-2.6c-0.8-0.7-1.8-1-2.9-1.1c-0.3,8.7-0.7,17.4-1,26c1.1-0.3,2.1-0.8,2.9-1.7c0.9-0.9,1.6-1.9,2.3-3.2
				c0.6-1.2,1.1-2.6,1.5-4.2c0.3-1.5,0.5-3.1,0.6-4.7C137.7,160.6,137.7,160.4,137.7,160.2z"/>
			<path class="st0" d="M176.3,130.4c-0.1,2.6-0.2,5.2-0.3,7.8s-0.2,5.2-0.4,7.8c-3.8,0.3-7.7,0.6-11.5,0.9c0,1.8,0,3.5,0,5.3
				c3.3,0,6.7,0,10,0c-0.2,4.3-0.4,8.7-0.6,13c-3.2,0.1-6.3,0.3-9.5,0.4c0,8.3,0,16.6,0,24.8c-4.5,0.1-9.1,0.3-13.6,0.4
				c0.3-20.2,0.6-40.3,0.9-60.5C159.6,130.3,167.9,130.3,176.3,130.4z"/>
			<path class="st0" d="M192.4,131.9c-1.2,19-2.3,38.1-3.5,57.1c-3.8,0.3-7.6,0.6-11.4,0.8c0.1-19,0.2-37.9,0.3-56.9
				C182.8,132.6,187.6,132.3,192.4,131.9z"/>
			<path class="st0" d="M226.1,182.9c-0.9,1.6-1.9,3.1-3.2,4.3s-2.6,2.2-4,3s-2.9,1.4-4.4,1.8c-1.5,0.4-2.9,0.6-4.3,0.6
				c-2.6,0-5-0.8-7.2-2.3s-4-3.5-5.6-6.1s-2.8-5.6-3.6-9.1c-0.9-3.5-1.3-7.2-1.2-11.2c0-3.1,0.3-6,0.8-9c0.5-2.9,1.2-5.7,2-8.2
				c0.9-2.6,1.9-4.9,3.2-7.1c1.2-2.2,2.6-4,4.2-5.6c1.6-1.5,3.3-2.7,5.1-3.6c1.8-0.8,3.8-1.3,5.9-1.2c0.8,0,1.6,0.1,2.5,0.2
				c0.9,0.1,1.8,0.3,2.7,0.5c0.9,0.3,1.7,0.6,2.6,1c0.8,0.4,1.6,1,2.3,1.6c-0.3,5.3-0.7,10.7-1,16c-1-0.6-2-1-3.1-1.2
				s-2.1-0.3-3.2-0.4c-1.5,0-2.8,0.3-4.1,1s-2.4,1.6-3.3,2.9c-0.9,1.3-1.7,2.8-2.3,4.7c-0.6,1.8-0.9,3.9-0.9,6.2
				c0,1.5,0.1,2.9,0.3,4.2c0.2,1.4,0.6,2.6,1.1,3.6c0.5,1.1,1.1,1.9,1.9,2.6c0.8,0.7,1.6,1,2.7,1c0.7,0,1.4-0.1,2.1-0.4
				c0.7-0.3,1.4-0.7,1.9-1.4c0.1-1.1,0.1-2.2,0.2-3.3c-2.2-0.1-4.3-0.2-6.5-0.3c0.2-4.2,0.3-8.4,0.5-12.6c2.7-0.1,5.4-0.2,8.1-0.2
				c2.7-0.1,5.4-0.1,8.1-0.3C226.2,164.1,226.2,173.5,226.1,182.9z"/>
			<path class="st0" d="M260,192.1c-4.5,0.2-9,0.5-13.5,0.7c0.1-6.5,0.2-12.9,0.3-19.4c-2.1,0-4.1-0.1-6.2-0.1
				c-0.2,6.1-0.5,12.2-0.7,18.4c-4-0.1-8-0.2-12.1-0.2c0.7-19.7,1.4-39.3,2-59c4.3,0.4,8.6,0.8,13,1.2c-0.5,10-0.9,20.1-1.4,30.1
				c2,0,4,0.1,6,0.1c0.2-10.8,0.5-21.6,0.7-32.4c4.1,0.3,8.3,0.5,12.4,0.8C260.4,152.2,260.2,172.2,260,192.1z"/>
			<g>
				<path class="st0" d="M296.3,124.5c-0.3,7-0.6,14-1,21c-3,0.3-6,0.5-9,0.8c-1.2,15.1-2.4,30.1-3.6,44.9
					c-4.2-0.3-8.4-0.7-12.5-1.1c0.4-14.2,0.8-28.4,1.2-42.5c-3,0.3-6,0.6-9,0.9c0.3-6.8,0.6-13.6,0.9-20.4
					C274.3,126.9,285.3,125.7,296.3,124.5z"/>
			</g>
		</g>
	</g>
</g>
<g>
	<path class="st0" d="M308.1,151.8c0.2,1.5,0.2,2.8,0.1,3.9c-0.3,4.1-2.3,5.7-5.8,5.5c-2.1-0.2-3.5-1.3-4-2.9
		c-0.8,1.8-2.6,2.8-5,2.6c-4-0.3-5.3-3-5-7.4c0.1-0.9,0.2-1.8,0.5-2.9C288.9,150.5,297.9,151.2,308.1,151.8z M293.7,157
		c1.9,0.2,3-0.6,3.2-2.3l-5.7-0.4C291,155.9,291.6,156.9,293.7,157z M299.7,154.9c-0.2,1.6,0.7,2.5,2.5,2.7c1.9,0.2,2.9-0.5,2.9-2.2
		L299.7,154.9z"/>
	<path class="st0" d="M307.1,164.1c0,0-0.1,2.2-0.5,7.8c0,0-1.5-0.1-3.7-0.3c0,0,0.2-2.3,0.2-4.1c0,0-1.7-0.2-4.5-0.3
		c0,0.2-0.1,1.4-0.3,3.5c0,0-1.5-0.1-3.5-0.3c0,0,0.1-1.5,0.3-3.5c-1.3-0.1-2.6-0.2-4.1-0.2c0,0-0.2,1.6-0.5,4c0,0-1.2-0.1-3.5-0.3
		c0,0,0.4-3.5,0.8-7.6C287.9,162.8,295.9,163.3,307.1,164.1z"/>
	<path class="st0" d="M306.4,173.8c0,0-0.3,2.9-0.7,9.4c0,0-1.4-0.2-3.7-0.3c0,0,0.1-1.1,0.3-2.8c-2.8-0.2-7.5-0.6-15.9-1.2
		c0,0,0.1-1.3,0.3-3.7c0,0,6.2,0.5,15.9,1.2l0.2-2.8C302.8,173.6,303.8,173.7,306.4,173.8z"/>
	<path class="st0" d="M305.4,187c-0.1,3-0.3,5.3-0.3,5.3s-9.8,0.5-20.2,1.4c0,0,0.2-1.5,0.3-3.9c0,0,1.2,0,3.8-0.1
		c0.1-0.6,0.1-1.5,0.2-2.8l-3-0.5c0,0,0.1-1.2,0.4-3.7C286.6,182.8,293.9,184.5,305.4,187z M292.3,187.5c0,0-0.1,0.7-0.2,2.1
		c2.6,0,5.8-0.1,9.9-0.3C300.5,189,296.9,188.3,292.3,187.5z"/>
</g>
</svg>
